# https://github.com/mikedh/trimesh
v -0.94989874 0.05692251 0.19036307
v -0.94989874 0.05692251 -0.19036307
v -0.95160236 -0.00000000 0.19036307
v -0.95160236 -0.00000000 -0.19036307
v -0.94989874 -0.05692251 0.19036307
v -0.94989874 -0.05692251 -0.19036307
v -0.94479393 -0.11364126 0.19036307
v -0.94479393 -0.11364126 -0.19036307
v -0.93630630 -0.16995320 0.19036307
v -0.93630630 -0.16995320 -0.19036307
v -0.92446612 -0.22565675 0.19036307
v -0.92446612 -0.22565675 -0.19036307
v -0.90931588 -0.28055250 0.19036307
v -0.90931588 -0.28055250 -0.19036307
v -0.89090975 -0.33444394 0.19036307
v -0.89090975 -0.33444394 -0.19036307
v -0.86931359 -0.38713818 0.19036307
v -0.86931359 -0.38713818 -0.19036307
v -0.84460475 -0.43844654 0.19036307
v -0.84460475 -0.43844654 -0.19036307
v -0.81687174 -0.48818541 0.19036307
v -0.81687174 -0.48818541 -0.19036307
v -0.78621376 -0.53617666 0.19036307
v -0.78621376 -0.53617666 -0.19036307
v -0.75274054 -0.58224856 0.19036307
v -0.75274054 -0.58224856 -0.19036307
v -0.71657196 -0.62623614 0.19036307
v -0.71657196 -0.62623614 -0.19036307
v -0.67783751 -0.66798198 0.19036307
v -0.67783751 -0.66798198 -0.19036307
v -0.63667581 -0.70733666 0.19036307
v -0.63667581 -0.70733666 -0.19036307
v -0.59323417 -0.74415923 0.19036307
v -0.59323417 -0.74415923 -0.19036307
v -0.54766817 -0.77831789 0.19036307
v -0.54766817 -0.77831789 -0.19036307
v -0.50014090 -0.80969036 0.19036307
v -0.50014090 -0.80969036 -0.19036307
v -0.45082249 -0.83816436 0.19036307
v -0.45082249 -0.83816436 -0.19036307
v -0.39988949 -0.86363794 0.19036307
v -0.39988949 -0.86363794 -0.19036307
v -0.34752421 -0.88601989 0.19036307
v -0.34752421 -0.88601989 -0.19036307
v -0.29391413 -0.90523019 0.19036307
v -0.29391413 -0.90523019 -0.19036307
v -0.23925115 -0.92119999 0.19036307
v -0.23925115 -0.92119999 -0.19036307
v -0.18373096 -0.93387208 0.19036307
v -0.18373096 -0.93387208 -0.19036307
v -0.12755229 -0.94320121 0.19036307
v -0.12755229 -0.94320121 -0.19036307
v -0.07091626 -0.94915390 0.19036307
v -0.07091626 -0.94915390 -0.19036307
v -0.01402561 -0.95170881 0.19036307
v -0.01402561 -0.95170881 -0.19036307
v 0.04291602 -0.95085693 0.19036307
v 0.04291602 -0.95085693 -0.19036307
v 0.09970478 -0.94660117 0.19036307
v 0.09970478 -0.94660117 -0.19036307
v 0.15613740 -0.93895692 0.19036307
v 0.15613740 -0.93895692 -0.19036307
v 0.21201184 -0.92795134 0.19036307
v 0.21201184 -0.92795134 -0.19036307
v 0.26712809 -0.91362400 0.19036307
v 0.26712809 -0.91362400 -0.19036307
v 0.32128884 -0.89602610 0.19036307
v 0.32128884 -0.89602610 -0.19036307
v 0.37430023 -0.87522061 0.19036307
v 0.37430023 -0.87522061 -0.19036307
v 0.42597251 -0.85128217 0.19036307
v 0.42597251 -0.85128217 -0.19036307
v 0.47612066 -0.82429625 0.19036307
v 0.47612066 -0.82429625 -0.19036307
v 0.52456519 -0.79435966 0.19036307
v 0.52456519 -0.79435966 -0.19036307
v 0.57113267 -0.76157936 0.19036307
v 0.57113267 -0.76157936 -0.19036307
v 0.61565639 -0.72607291 0.19036307
v 0.61565639 -0.72607291 -0.19036307
v 0.65797699 -0.68796725 0.19036307
v 0.65797699 -0.68796725 -0.19036307
v 0.69794297 -0.64739884 0.19036307
v 0.69794297 -0.64739884 -0.19036307
v 0.73541133 -0.60451294 0.19036307
v 0.73541133 -0.60451294 -0.19036307
v 0.77024781 -0.55946303 0.19036307
v 0.77024781 -0.55946303 -0.19036307
v 0.80232772 -0.51241036 0.19036307
v 0.80232772 -0.51241036 -0.19036307
v 0.83153632 -0.46352344 0.19036307
v 0.83153632 -0.46352344 -0.19036307
v 0.85776897 -0.41297720 0.19036307
v 0.85776897 -0.41297720 -0.19036307
v 0.88093185 -0.36095261 0.19036307
v 0.88093185 -0.36095261 -0.19036307
v 0.90094189 -0.30763590 0.19036307
v 0.90094189 -0.30763590 -0.19036307
v 0.91772763 -0.25321796 0.19036307
v 0.91772763 -0.25321796 -0.19036307
v 0.93122887 -0.19789353 0.19036307
v 0.93122887 -0.19789353 -0.19036307
v 0.94139731 -0.14186071 0.19036307
v 0.94139731 -0.14186071 -0.19036307
v 0.94819658 -0.08532007 0.19036307
v 0.94819658 -0.08532007 -0.19036307
v 0.95160236 -0.02847400 0.19036307
v 0.95160236 -0.02847400 -0.19036307
v 0.95160236 0.02847400 0.19036307
v 0.95160236 0.02847400 -0.19036307
v 0.94819658 0.08532007 0.19036307
v 0.94819658 0.08532007 -0.19036307
v 0.94139731 0.14186071 0.19036307
v 0.94139731 0.14186071 -0.19036307
v 0.93122887 0.19789353 0.19036307
v 0.93122887 0.19789353 -0.19036307
v 0.91772763 0.25321796 0.19036307
v 0.91772763 0.25321796 -0.19036307
v 0.90094189 0.30763590 0.19036307
v 0.90094189 0.30763590 -0.19036307
v 0.88093185 0.36095261 0.19036307
v 0.88093185 0.36095261 -0.19036307
v 0.85776897 0.41297720 0.19036307
v 0.85776897 0.41297720 -0.19036307
v 0.83153632 0.46352344 0.19036307
v 0.83153632 0.46352344 -0.19036307
v 0.80232772 0.51241036 0.19036307
v 0.80232772 0.51241036 -0.19036307
v 0.77024781 0.55946303 0.19036307
v 0.77024781 0.55946303 -0.19036307
v 0.73541133 0.60451294 0.19036307
v 0.73541133 0.60451294 -0.19036307
v 0.69794297 0.64739884 0.19036307
v 0.69794297 0.64739884 -0.19036307
v 0.65797699 0.68796725 0.19036307
v 0.65797699 0.68796725 -0.19036307
v 0.61565639 0.72607291 0.19036307
v 0.61565639 0.72607291 -0.19036307
v 0.57113267 0.76157936 0.19036307
v 0.57113267 0.76157936 -0.19036307
v 0.52456519 0.79435966 0.19036307
v 0.52456519 0.79435966 -0.19036307
v 0.47612066 0.82429625 0.19036307
v 0.47612066 0.82429625 -0.19036307
v 0.42597251 0.85128217 0.19036307
v 0.42597251 0.85128217 -0.19036307
v 0.37430023 0.87522061 0.19036307
v 0.37430023 0.87522061 -0.19036307
v 0.32128884 0.89602610 0.19036307
v 0.32128884 0.89602610 -0.19036307
v 0.26712809 0.91362400 0.19036307
v 0.26712809 0.91362400 -0.19036307
v 0.21201184 0.92795134 0.19036307
v 0.21201184 0.92795134 -0.19036307
v 0.15613740 0.93895692 0.19036307
v 0.15613740 0.93895692 -0.19036307
v 0.09970478 0.94660117 0.19036307
v 0.09970478 0.94660117 -0.19036307
v 0.04291602 0.95085693 0.19036307
v 0.04291602 0.95085693 -0.19036307
v -0.01402561 0.95170881 0.19036307
v -0.01402561 0.95170881 -0.19036307
v -0.07091626 0.94915390 0.19036307
v -0.07091626 0.94915390 -0.19036307
v -0.12755229 0.94320121 0.19036307
v -0.12755229 0.94320121 -0.19036307
v -0.18373096 0.93387208 0.19036307
v -0.18373096 0.93387208 -0.19036307
v -0.23925115 0.92119999 0.19036307
v -0.23925115 0.92119999 -0.19036307
v -0.29391413 0.90523019 0.19036307
v -0.29391413 0.90523019 -0.19036307
v -0.34752421 0.88601989 0.19036307
v -0.34752421 0.88601989 -0.19036307
v -0.39988949 0.86363794 0.19036307
v -0.39988949 0.86363794 -0.19036307
v -0.45082249 0.83816436 0.19036307
v -0.45082249 0.83816436 -0.19036307
v -0.50014090 0.80969036 0.19036307
v -0.50014090 0.80969036 -0.19036307
v -0.54766817 0.77831789 0.19036307
v -0.54766817 0.77831789 -0.19036307
v -0.59323417 0.74415923 0.19036307
v -0.59323417 0.74415923 -0.19036307
v -0.63667581 0.70733666 0.19036307
v -0.63667581 0.70733666 -0.19036307
v -0.67783751 0.66798198 0.19036307
v -0.67783751 0.66798198 -0.19036307
v -0.71657196 0.62623614 0.19036307
v -0.71657196 0.62623614 -0.19036307
v -0.75274054 0.58224856 0.19036307
v -0.75274054 0.58224856 -0.19036307
v -0.78621376 0.53617666 0.19036307
v -0.78621376 0.53617666 -0.19036307
v -0.81687174 0.48818541 0.19036307
v -0.81687174 0.48818541 -0.19036307
v -0.84460475 0.43844654 0.19036307
v -0.84460475 0.43844654 -0.19036307
v -0.86931359 0.38713818 0.19036307
v -0.86931359 0.38713818 -0.19036307
v -0.89090975 0.33444394 0.19036307
v -0.89090975 0.33444394 -0.19036307
v -0.90931588 0.28055250 0.19036307
v -0.90931588 0.28055250 -0.19036307
v -0.92446612 0.22565675 0.19036307
v -0.92446612 0.22565675 -0.19036307
v -0.93630630 0.16995320 0.19036307
v -0.93630630 0.16995320 -0.19036307
v -0.94479393 0.11364126 0.19036307
v -0.94479393 0.11364126 -0.19036307
f 1 2 3
f 3 2 4
f 3 4 5
f 5 4 6
f 5 6 7
f 7 6 8
f 7 8 9
f 9 8 10
f 9 10 11
f 11 10 12
f 11 12 13
f 13 12 14
f 13 14 15
f 15 14 16
f 15 16 17
f 17 16 18
f 17 18 19
f 19 18 20
f 19 20 21
f 21 20 22
f 21 22 23
f 23 22 24
f 23 24 25
f 25 24 26
f 25 26 27
f 27 26 28
f 27 28 29
f 29 28 30
f 29 30 31
f 31 30 32
f 31 32 33
f 33 32 34
f 33 34 35
f 35 34 36
f 35 36 37
f 37 36 38
f 37 38 39
f 39 38 40
f 39 40 41
f 41 40 42
f 41 42 43
f 43 42 44
f 43 44 45
f 45 44 46
f 45 46 47
f 47 46 48
f 47 48 49
f 49 48 50
f 49 50 51
f 51 50 52
f 51 52 53
f 53 52 54
f 53 54 55
f 55 54 56
f 55 56 57
f 57 56 58
f 57 58 59
f 59 58 60
f 59 60 61
f 61 60 62
f 61 62 63
f 63 62 64
f 63 64 65
f 65 64 66
f 65 66 67
f 67 66 68
f 67 68 69
f 69 68 70
f 69 70 71
f 71 70 72
f 71 72 73
f 73 72 74
f 73 74 75
f 75 74 76
f 75 76 77
f 77 76 78
f 77 78 79
f 79 78 80
f 79 80 81
f 81 80 82
f 81 82 83
f 83 82 84
f 83 84 85
f 85 84 86
f 85 86 87
f 87 86 88
f 87 88 89
f 89 88 90
f 89 90 91
f 91 90 92
f 91 92 93
f 93 92 94
f 93 94 95
f 95 94 96
f 95 96 97
f 97 96 98
f 97 98 99
f 99 98 100
f 99 100 101
f 101 100 102
f 101 102 103
f 103 102 104
f 103 104 105
f 105 104 106
f 105 106 107
f 107 106 108
f 107 108 109
f 109 108 110
f 109 110 111
f 111 110 112
f 111 112 113
f 113 112 114
f 113 114 115
f 115 114 116
f 115 116 117
f 117 116 118
f 117 118 119
f 119 118 120
f 119 120 121
f 121 120 122
f 121 122 123
f 123 122 124
f 123 124 125
f 125 124 126
f 125 126 127
f 127 126 128
f 127 128 129
f 129 128 130
f 129 130 131
f 131 130 132
f 131 132 133
f 133 132 134
f 133 134 135
f 135 134 136
f 135 136 137
f 137 136 138
f 137 138 139
f 139 138 140
f 139 140 141
f 141 140 142
f 141 142 143
f 143 142 144
f 143 144 145
f 145 144 146
f 145 146 147
f 147 146 148
f 147 148 149
f 149 148 150
f 149 150 151
f 151 150 152
f 151 152 153
f 153 152 154
f 153 154 155
f 155 154 156
f 155 156 157
f 157 156 158
f 157 158 159
f 159 158 160
f 159 160 161
f 161 160 162
f 161 162 163
f 163 162 164
f 163 164 165
f 165 164 166
f 165 166 167
f 167 166 168
f 167 168 169
f 169 168 170
f 169 170 171
f 171 170 172
f 171 172 173
f 173 172 174
f 173 174 175
f 175 174 176
f 175 176 177
f 177 176 178
f 177 178 179
f 179 178 180
f 179 180 181
f 181 180 182
f 181 182 183
f 183 182 184
f 183 184 185
f 185 184 186
f 185 186 187
f 187 186 188
f 187 188 189
f 189 188 190
f 189 190 191
f 191 190 192
f 191 192 193
f 193 192 194
f 193 194 195
f 195 194 196
f 195 196 197
f 197 196 198
f 197 198 199
f 199 198 200
f 199 200 201
f 201 200 202
f 201 202 203
f 203 202 204
f 203 204 205
f 205 204 206
f 205 206 207
f 207 206 208
f 207 208 209
f 209 208 210
f 209 210 1
f 1 210 2
f 5 107 3
f 3 107 109
f 3 109 1
f 1 109 111
f 1 111 209
f 209 111 113
f 209 113 207
f 207 113 115
f 207 115 205
f 205 115 117
f 205 117 203
f 203 117 201
f 201 117 199
f 199 117 197
f 197 117 195
f 195 117 119
f 195 119 193
f 193 119 191
f 191 119 189
f 189 119 187
f 187 119 185
f 185 119 183
f 183 119 181
f 181 119 179
f 179 119 177
f 177 119 175
f 175 119 173
f 173 119 171
f 171 119 169
f 169 119 167
f 167 119 165
f 165 119 163
f 163 119 161
f 161 119 159
f 159 119 157
f 157 119 155
f 155 119 153
f 153 119 151
f 151 119 149
f 149 119 147
f 147 119 145
f 145 119 143
f 143 119 141
f 141 119 139
f 139 119 137
f 137 119 135
f 135 119 133
f 133 119 131
f 131 119 129
f 129 119 127
f 127 119 125
f 125 119 123
f 123 119 121
f 107 5 105
f 105 5 7
f 105 7 103
f 103 7 9
f 103 9 101
f 101 9 11
f 101 11 99
f 99 11 13
f 99 13 97
f 97 13 15
f 97 15 95
f 95 15 17
f 95 17 93
f 93 17 19
f 93 19 91
f 91 19 21
f 91 21 89
f 89 21 23
f 89 23 87
f 87 23 25
f 87 25 85
f 85 25 27
f 85 27 83
f 83 27 29
f 83 29 81
f 81 29 31
f 81 31 79
f 79 31 33
f 79 33 77
f 77 33 35
f 77 35 75
f 75 35 37
f 75 37 73
f 73 37 39
f 73 39 71
f 71 39 41
f 71 41 69
f 69 41 43
f 69 43 67
f 67 43 45
f 67 45 65
f 65 45 47
f 65 47 63
f 63 47 49
f 63 49 61
f 61 49 51
f 61 51 59
f 59 51 53
f 59 53 57
f 57 53 55
f 2 110 4
f 4 110 108
f 4 108 6
f 6 108 106
f 6 106 8
f 8 106 104
f 8 104 10
f 10 104 102
f 10 102 12
f 12 102 100
f 12 100 14
f 14 100 98
f 14 98 16
f 16 98 96
f 16 96 18
f 18 96 94
f 18 94 20
f 20 94 92
f 20 92 22
f 22 92 90
f 22 90 24
f 24 90 88
f 24 88 26
f 26 88 86
f 26 86 28
f 28 86 84
f 28 84 30
f 30 84 82
f 30 82 32
f 32 82 80
f 32 80 34
f 34 80 78
f 34 78 36
f 36 78 76
f 36 76 38
f 38 76 74
f 38 74 40
f 40 74 72
f 40 72 42
f 42 72 70
f 42 70 44
f 44 70 68
f 44 68 46
f 46 68 66
f 46 66 48
f 48 66 64
f 48 64 50
f 50 64 62
f 50 62 52
f 52 62 60
f 52 60 54
f 54 60 58
f 54 58 56
f 110 2 112
f 112 2 210
f 112 210 114
f 114 210 208
f 114 208 116
f 116 208 206
f 116 206 118
f 118 206 204
f 118 204 202
f 202 200 118
f 118 200 198
f 118 198 196
f 118 196 120
f 120 196 194
f 120 194 192
f 192 190 120
f 120 190 188
f 120 188 186
f 186 184 120
f 120 184 182
f 120 182 180
f 180 178 120
f 120 178 176
f 120 176 174
f 174 172 120
f 120 172 170
f 120 170 168
f 168 166 120
f 120 166 164
f 120 164 162
f 162 160 120
f 120 160 158
f 120 158 156
f 156 154 120
f 120 154 152
f 120 152 150
f 150 148 120
f 120 148 146
f 120 146 144
f 144 142 120
f 120 142 140
f 120 140 138
f 138 136 120
f 120 136 134
f 120 134 132
f 132 130 120
f 120 130 128
f 120 128 126
f 126 124 120
f 120 124 122

