# https://github.com/mikedh/trimesh

o cylinder5.stl
v -9.97564030 0.69756472 17.00000000
v -9.97564030 0.69756472 3.50000000
v -10.00000000 -0.00000000 17.00000000
v -10.00000000 -0.00000000 3.50000000
v -9.97564030 -0.69756472 17.00000000
v -9.97564030 -0.69756472 3.50000000
v -9.90268040 -1.39173102 17.00000000
v -9.90268040 -1.39173102 3.50000000
v -9.78147602 -2.07911682 17.00000000
v -9.78147602 -2.07911682 3.50000000
v -9.61261654 -2.75637364 17.00000000
v -9.61261654 -2.75637364 3.50000000
v -9.39692593 -3.42020154 17.00000000
v -9.39692593 -3.42020154 3.50000000
v -9.13545418 -4.06736660 17.00000000
v -9.13545418 -4.06736660 3.50000000
v -8.82947636 -4.69471550 17.00000000
v -8.82947636 -4.69471550 3.50000000
v -8.48048115 -5.29919243 17.00000000
v -8.48048115 -5.29919243 3.50000000
v -8.09016991 -5.87785244 17.00000000
v -8.09016991 -5.87785244 3.50000000
v -7.66044426 -6.42787600 17.00000000
v -7.66044426 -6.42787600 3.50000000
v -7.19339800 -6.94658375 17.00000000
v -7.19339800 -6.94658375 3.50000000
v -6.69130611 -7.43144846 17.00000000
v -6.69130611 -7.43144846 3.50000000
v -6.15661478 -7.88010740 17.00000000
v -6.15661478 -7.88010740 3.50000000
v -5.59192896 -8.29037571 17.00000000
v -5.59192896 -8.29037571 3.50000000
v -5.00000000 -8.66025448 17.00000000
v -5.00000000 -8.66025448 3.50000000
v -4.38371134 -8.98794079 17.00000000
v -4.38371134 -8.98794079 3.50000000
v -3.74606586 -9.27183819 17.00000000
v -3.74606586 -9.27183819 3.50000000
v -3.09016991 -9.51056480 17.00000000
v -3.09016991 -9.51056480 3.50000000
v -2.41921902 -9.70295715 17.00000000
v -2.41921902 -9.70295715 3.50000000
v -1.73648179 -9.84807777 17.00000000
v -1.73648179 -9.84807777 3.50000000
v -1.04528463 -9.94521904 17.00000000
v -1.04528463 -9.94521904 3.50000000
v -0.34899497 -9.99390793 17.00000000
v -0.34899497 -9.99390793 3.50000000
v 0.34899497 -9.99390793 17.00000000
v 0.34899497 -9.99390793 3.50000000
v 1.04528463 -9.94521904 17.00000000
v 1.04528463 -9.94521904 3.50000000
v 1.73648179 -9.84807777 17.00000000
v 1.73648179 -9.84807777 3.50000000
v 2.41921902 -9.70295715 17.00000000
v 2.41921902 -9.70295715 3.50000000
v 3.09016991 -9.51056480 17.00000000
v 3.09016991 -9.51056480 3.50000000
v 3.74606586 -9.27183819 17.00000000
v 3.74606586 -9.27183819 3.50000000
v 4.38371134 -8.98794079 17.00000000
v 4.38371134 -8.98794079 3.50000000
v 5.00000000 -8.66025448 17.00000000
v 5.00000000 -8.66025448 3.50000000
v 5.59192896 -8.29037571 17.00000000
v 5.59192896 -8.29037571 3.50000000
v 6.15661478 -7.88010740 17.00000000
v 6.15661478 -7.88010740 3.50000000
v 6.69130611 -7.43144846 17.00000000
v 6.69130611 -7.43144846 3.50000000
v 7.19339800 -6.94658375 17.00000000
v 7.19339800 -6.94658375 3.50000000
v 7.66044426 -6.42787600 17.00000000
v 7.66044426 -6.42787600 3.50000000
v 8.09016991 -5.87785244 17.00000000
v 8.09016991 -5.87785244 3.50000000
v 8.48048115 -5.29919243 17.00000000
v 8.48048115 -5.29919243 3.50000000
v 8.82947636 -4.69471550 17.00000000
v 8.82947636 -4.69471550 3.50000000
v 9.13545418 -4.06736660 17.00000000
v 9.13545418 -4.06736660 3.50000000
v 9.39692593 -3.42020154 17.00000000
v 9.39692593 -3.42020154 3.50000000
v 9.61261654 -2.75637364 17.00000000
v 9.61261654 -2.75637364 3.50000000
v 9.78147602 -2.07911682 17.00000000
v 9.78147602 -2.07911682 3.50000000
v 9.90268040 -1.39173102 17.00000000
v 9.90268040 -1.39173102 3.50000000
v 9.97564030 -0.69756472 17.00000000
v 9.97564030 -0.69756472 3.50000000
v 10.00000000 -0.00000000 17.00000000
v 10.00000000 -0.00000000 3.50000000
v 9.97564030 0.69756472 17.00000000
v 9.97564030 0.69756472 3.50000000
v 9.90268040 1.39173102 17.00000000
v 9.90268040 1.39173102 3.50000000
v 9.78147602 2.07911682 17.00000000
v 9.78147602 2.07911682 3.50000000
v 9.61261654 2.75637364 17.00000000
v 9.61261654 2.75637364 3.50000000
v 9.39692593 3.42020154 17.00000000
v 9.39692593 3.42020154 3.50000000
v 9.13545418 4.06736660 17.00000000
v 9.13545418 4.06736660 3.50000000
v 8.82947636 4.69471550 17.00000000
v 8.82947636 4.69471550 3.50000000
v 8.48048115 5.29919243 17.00000000
v 8.48048115 5.29919243 3.50000000
v 8.09016991 5.87785244 17.00000000
v 8.09016991 5.87785244 3.50000000
v 7.66044426 6.42787600 17.00000000
v 7.66044426 6.42787600 3.50000000
v 7.19339800 6.94658375 17.00000000
v 7.19339800 6.94658375 3.50000000
v 6.69130611 7.43144846 17.00000000
v 6.69130611 7.43144846 3.50000000
v 6.15661478 7.88010740 17.00000000
v 6.15661478 7.88010740 3.50000000
v 5.59192896 8.29037571 17.00000000
v 5.59192896 8.29037571 3.50000000
v 5.00000000 8.66025448 17.00000000
v 5.00000000 8.66025448 3.50000000
v 4.38371134 8.98794079 17.00000000
v 4.38371134 8.98794079 3.50000000
v 3.74606586 9.27183819 17.00000000
v 3.74606586 9.27183819 3.50000000
v 3.09016991 9.51056480 17.00000000
v 3.09016991 9.51056480 3.50000000
v 2.41921902 9.70295715 17.00000000
v 2.41921902 9.70295715 3.50000000
v 1.73648179 9.84807777 17.00000000
v 1.73648179 9.84807777 3.50000000
v 1.04528463 9.94521904 17.00000000
v 1.04528463 9.94521904 3.50000000
v 0.34899497 9.99390793 17.00000000
v 0.34899497 9.99390793 3.50000000
v -0.34899497 9.99390793 17.00000000
v -0.34899497 9.99390793 3.50000000
v -1.04528463 9.94521904 17.00000000
v -1.04528463 9.94521904 3.50000000
v -1.73648179 9.84807777 17.00000000
v -1.73648179 9.84807777 3.50000000
v -2.41921902 9.70295715 17.00000000
v -2.41921902 9.70295715 3.50000000
v -3.09016991 9.51056480 17.00000000
v -3.09016991 9.51056480 3.50000000
v -3.74606586 9.27183819 17.00000000
v -3.74606586 9.27183819 3.50000000
v -4.38371134 8.98794079 17.00000000
v -4.38371134 8.98794079 3.50000000
v -5.00000000 8.66025448 17.00000000
v -5.00000000 8.66025448 3.50000000
v -5.59192896 8.29037571 17.00000000
v -5.59192896 8.29037571 3.50000000
v -6.15661478 7.88010740 17.00000000
v -6.15661478 7.88010740 3.50000000
v -6.69130611 7.43144846 17.00000000
v -6.69130611 7.43144846 3.50000000
v -7.19339800 6.94658375 17.00000000
v -7.19339800 6.94658375 3.50000000
v -7.66044426 6.42787600 17.00000000
v -7.66044426 6.42787600 3.50000000
v -8.09016991 5.87785244 17.00000000
v -8.09016991 5.87785244 3.50000000
v -8.48048115 5.29919243 17.00000000
v -8.48048115 5.29919243 3.50000000
v -8.82947636 4.69471550 17.00000000
v -8.82947636 4.69471550 3.50000000
v -9.13545418 4.06736660 17.00000000
v -9.13545418 4.06736660 3.50000000
v -9.39692593 3.42020154 17.00000000
v -9.39692593 3.42020154 3.50000000
v -9.61261654 2.75637364 17.00000000
v -9.61261654 2.75637364 3.50000000
v -9.78147602 2.07911682 17.00000000
v -9.78147602 2.07911682 3.50000000
v -9.90268040 1.39173102 17.00000000
v -9.90268040 1.39173102 3.50000000
v -9.97564030 -0.69756472 -10.00000000
v -10.00000000 -0.00000000 -10.00000000
v -9.97564030 0.69756472 -10.00000000
v -9.90268040 1.39173102 -10.00000000
v -9.78147602 2.07911682 -10.00000000
v -9.61261654 2.75637364 -10.00000000
v -9.39692593 3.42020154 -10.00000000
v -9.13545418 4.06736660 -10.00000000
v -8.82947636 4.69471550 -10.00000000
v -8.48048115 5.29919243 -10.00000000
v -8.09016991 5.87785244 -10.00000000
v -7.66044426 6.42787600 -10.00000000
v -7.19339800 6.94658375 -10.00000000
v -6.69130611 7.43144846 -10.00000000
v -6.15661478 7.88010740 -10.00000000
v -5.59192896 8.29037571 -10.00000000
v -5.00000000 8.66025448 -10.00000000
v -4.38371134 8.98794079 -10.00000000
v -3.74606586 9.27183819 -10.00000000
v -3.09016991 9.51056480 -10.00000000
v -2.41921902 9.70295715 -10.00000000
v -1.73648179 9.84807777 -10.00000000
v -1.04528463 9.94521904 -10.00000000
v -0.34899497 9.99390793 -10.00000000
v 0.34899497 9.99390793 -10.00000000
v 1.04528463 9.94521904 -10.00000000
v 1.73648179 9.84807777 -10.00000000
v 2.41921902 9.70295715 -10.00000000
v 3.09016991 9.51056480 -10.00000000
v 3.74606586 9.27183819 -10.00000000
v 4.38371134 8.98794079 -10.00000000
v 5.00000000 8.66025448 -10.00000000
v 5.59192896 8.29037571 -10.00000000
v 6.15661478 7.88010740 -10.00000000
v 6.69130611 7.43144846 -10.00000000
v 7.19339800 6.94658375 -10.00000000
v 7.66044426 6.42787600 -10.00000000
v 8.09016991 5.87785244 -10.00000000
v 8.48048115 5.29919243 -10.00000000
v 8.82947636 4.69471550 -10.00000000
v 9.13545418 4.06736660 -10.00000000
v 9.39692593 3.42020154 -10.00000000
v 9.61261654 2.75637364 -10.00000000
v 9.78147602 2.07911682 -10.00000000
v 9.90268040 1.39173102 -10.00000000
v 9.97564030 0.69756472 -10.00000000
v 10.00000000 -0.00000000 -10.00000000
v 9.97564030 -0.69756472 -10.00000000
v 9.90268040 -1.39173102 -10.00000000
v 9.78147602 -2.07911682 -10.00000000
v 9.61261654 -2.75637364 -10.00000000
v 9.39692593 -3.42020154 -10.00000000
v 9.13545418 -4.06736660 -10.00000000
v 8.82947636 -4.69471550 -10.00000000
v 8.48048115 -5.29919243 -10.00000000
v 8.09016991 -5.87785244 -10.00000000
v 7.66044426 -6.42787600 -10.00000000
v 7.19339800 -6.94658375 -10.00000000
v 6.69130611 -7.43144846 -10.00000000
v 6.15661478 -7.88010740 -10.00000000
v 5.59192896 -8.29037571 -10.00000000
v 5.00000000 -8.66025448 -10.00000000
v 4.38371134 -8.98794079 -10.00000000
v 3.74606586 -9.27183819 -10.00000000
v 3.09016991 -9.51056480 -10.00000000
v 2.41921902 -9.70295715 -10.00000000
v 1.73648179 -9.84807777 -10.00000000
v 1.04528463 -9.94521904 -10.00000000
v 0.34899497 -9.99390793 -10.00000000
v -0.34899497 -9.99390793 -10.00000000
v -1.04528463 -9.94521904 -10.00000000
v -1.73648179 -9.84807777 -10.00000000
v -2.41921902 -9.70295715 -10.00000000
v -3.09016991 -9.51056480 -10.00000000
v -3.74606586 -9.27183819 -10.00000000
v -4.38371134 -8.98794079 -10.00000000
v -5.00000000 -8.66025448 -10.00000000
v -5.59192896 -8.29037571 -10.00000000
v -6.15661478 -7.88010740 -10.00000000
v -6.69130611 -7.43144846 -10.00000000
v -7.19339800 -6.94658375 -10.00000000
v -7.66044426 -6.42787600 -10.00000000
v -8.09016991 -5.87785244 -10.00000000
v -8.48048115 -5.29919243 -10.00000000
v -8.82947636 -4.69471550 -10.00000000
v -9.13545418 -4.06736660 -10.00000000
v -9.39692593 -3.42020154 -10.00000000
v -9.61261654 -2.75637364 -10.00000000
v -9.78147602 -2.07911682 -10.00000000
v -9.90268040 -1.39173102 -10.00000000
f 1 2 3
f 3 2 4
f 3 4 5
f 5 4 6
f 5 6 7
f 7 6 8
f 7 8 9
f 9 8 10
f 9 10 11
f 11 10 12
f 11 12 13
f 13 12 14
f 13 14 15
f 15 14 16
f 15 16 17
f 17 16 18
f 17 18 19
f 19 18 20
f 19 20 21
f 21 20 22
f 21 22 23
f 23 22 24
f 23 24 25
f 25 24 26
f 25 26 27
f 27 26 28
f 27 28 29
f 29 28 30
f 29 30 31
f 31 30 32
f 31 32 33
f 33 32 34
f 33 34 35
f 35 34 36
f 35 36 37
f 37 36 38
f 37 38 39
f 39 38 40
f 39 40 41
f 41 40 42
f 41 42 43
f 43 42 44
f 43 44 45
f 45 44 46
f 45 46 47
f 47 46 48
f 47 48 49
f 49 48 50
f 49 50 51
f 51 50 52
f 51 52 53
f 53 52 54
f 53 54 55
f 55 54 56
f 55 56 57
f 57 56 58
f 57 58 59
f 59 58 60
f 59 60 61
f 61 60 62
f 61 62 63
f 63 62 64
f 63 64 65
f 65 64 66
f 65 66 67
f 67 66 68
f 67 68 69
f 69 68 70
f 69 70 71
f 71 70 72
f 71 72 73
f 73 72 74
f 73 74 75
f 75 74 76
f 75 76 77
f 77 76 78
f 77 78 79
f 79 78 80
f 79 80 81
f 81 80 82
f 81 82 83
f 83 82 84
f 83 84 85
f 85 84 86
f 85 86 87
f 87 86 88
f 87 88 89
f 89 88 90
f 89 90 91
f 91 90 92
f 91 92 93
f 93 92 94
f 93 94 95
f 95 94 96
f 95 96 97
f 97 96 98
f 97 98 99
f 99 98 100
f 99 100 101
f 101 100 102
f 101 102 103
f 103 102 104
f 103 104 105
f 105 104 106
f 105 106 107
f 107 106 108
f 107 108 109
f 109 108 110
f 109 110 111
f 111 110 112
f 111 112 113
f 113 112 114
f 113 114 115
f 115 114 116
f 115 116 117
f 117 116 118
f 117 118 119
f 119 118 120
f 119 120 121
f 121 120 122
f 121 122 123
f 123 122 124
f 123 124 125
f 125 124 126
f 125 126 127
f 127 126 128
f 127 128 129
f 129 128 130
f 129 130 131
f 131 130 132
f 131 132 133
f 133 132 134
f 133 134 135
f 135 134 136
f 135 136 137
f 137 136 138
f 137 138 139
f 139 138 140
f 139 140 141
f 141 140 142
f 141 142 143
f 143 142 144
f 143 144 145
f 145 144 146
f 145 146 147
f 147 146 148
f 147 148 149
f 149 148 150
f 149 150 151
f 151 150 152
f 151 152 153
f 153 152 154
f 153 154 155
f 155 154 156
f 155 156 157
f 157 156 158
f 157 158 159
f 159 158 160
f 159 160 161
f 161 160 162
f 161 162 163
f 163 162 164
f 163 164 165
f 165 164 166
f 165 166 167
f 167 166 168
f 167 168 169
f 169 168 170
f 169 170 171
f 171 170 172
f 171 172 173
f 173 172 174
f 173 174 175
f 175 174 176
f 175 176 177
f 177 176 178
f 177 178 179
f 179 178 180
f 179 180 1
f 1 180 2
f 181 6 182
f 182 6 4
f 182 4 183
f 183 4 2
f 183 2 184
f 184 2 180
f 184 180 185
f 185 180 178
f 185 178 186
f 186 178 176
f 186 176 187
f 187 176 174
f 187 174 188
f 188 174 172
f 188 172 189
f 189 172 170
f 189 170 190
f 190 170 168
f 190 168 191
f 191 168 166
f 191 166 192
f 192 166 164
f 192 164 193
f 193 164 162
f 193 162 194
f 194 162 160
f 194 160 195
f 195 160 158
f 195 158 196
f 196 158 156
f 196 156 197
f 197 156 154
f 197 154 198
f 198 154 152
f 198 152 199
f 199 152 150
f 199 150 200
f 200 150 148
f 200 148 201
f 201 148 146
f 201 146 202
f 202 146 144
f 202 144 203
f 203 144 142
f 203 142 204
f 204 142 140
f 204 140 205
f 205 140 138
f 205 138 206
f 206 138 136
f 206 136 207
f 207 136 134
f 207 134 208
f 208 134 132
f 208 132 209
f 209 132 130
f 209 130 210
f 210 130 128
f 210 128 211
f 211 128 126
f 211 126 212
f 212 126 124
f 212 124 213
f 213 124 122
f 213 122 214
f 214 122 120
f 214 120 215
f 215 120 118
f 215 118 216
f 216 118 116
f 216 116 217
f 217 116 114
f 217 114 218
f 218 114 112
f 218 112 219
f 219 112 110
f 219 110 220
f 220 110 108
f 220 108 221
f 221 108 106
f 221 106 222
f 222 106 104
f 222 104 223
f 223 104 102
f 223 102 224
f 224 102 100
f 224 100 225
f 225 100 98
f 225 98 226
f 226 98 96
f 226 96 227
f 227 96 94
f 227 94 228
f 228 94 92
f 228 92 229
f 229 92 90
f 229 90 230
f 230 90 88
f 230 88 231
f 231 88 86
f 231 86 232
f 232 86 84
f 232 84 233
f 233 84 82
f 233 82 234
f 234 82 80
f 234 80 235
f 235 80 78
f 235 78 236
f 236 78 76
f 236 76 237
f 237 76 74
f 237 74 238
f 238 74 72
f 238 72 239
f 239 72 70
f 239 70 240
f 240 70 68
f 240 68 241
f 241 68 66
f 241 66 242
f 242 66 64
f 242 64 243
f 243 64 62
f 243 62 244
f 244 62 60
f 244 60 245
f 245 60 58
f 245 58 246
f 246 58 56
f 246 56 247
f 247 56 54
f 247 54 248
f 248 54 52
f 248 52 249
f 249 52 50
f 249 50 250
f 250 50 48
f 250 48 251
f 251 48 46
f 251 46 252
f 252 46 44
f 252 44 253
f 253 44 42
f 253 42 254
f 254 42 40
f 254 40 255
f 255 40 38
f 255 38 256
f 256 38 36
f 256 36 257
f 257 36 34
f 257 34 258
f 258 34 32
f 258 32 259
f 259 32 30
f 259 30 260
f 260 30 28
f 260 28 261
f 261 28 26
f 261 26 262
f 262 26 24
f 262 24 263
f 263 24 22
f 263 22 264
f 264 22 20
f 264 20 265
f 265 20 18
f 265 18 266
f 266 18 16
f 266 16 267
f 267 16 14
f 267 14 268
f 268 14 12
f 268 12 269
f 269 12 10
f 269 10 270
f 270 10 8
f 270 8 181
f 181 8 6
f 5 91 3
f 3 91 93
f 3 93 1
f 1 93 95
f 1 95 179
f 179 95 97
f 179 97 177
f 177 97 99
f 177 99 175
f 175 99 101
f 175 101 173
f 173 101 103
f 173 103 171
f 171 103 105
f 171 105 169
f 169 105 107
f 169 107 167
f 167 107 109
f 167 109 165
f 165 109 111
f 165 111 163
f 163 111 113
f 163 113 161
f 161 113 115
f 161 115 159
f 159 115 117
f 159 117 157
f 157 117 119
f 157 119 155
f 155 119 121
f 155 121 153
f 153 121 123
f 153 123 151
f 151 123 125
f 151 125 149
f 149 125 127
f 149 127 147
f 147 127 129
f 147 129 145
f 145 129 131
f 145 131 143
f 143 131 133
f 143 133 141
f 141 133 135
f 141 135 139
f 139 135 137
f 91 5 89
f 89 5 7
f 89 7 87
f 87 7 9
f 87 9 85
f 85 9 11
f 85 11 83
f 83 11 13
f 83 13 81
f 81 13 15
f 81 15 79
f 79 15 17
f 79 17 77
f 77 17 19
f 77 19 75
f 75 19 21
f 75 21 73
f 73 21 23
f 73 23 71
f 71 23 25
f 71 25 69
f 69 25 27
f 69 27 67
f 67 27 29
f 67 29 65
f 65 29 31
f 65 31 63
f 63 31 33
f 63 33 61
f 61 33 35
f 61 35 59
f 59 35 37
f 59 37 57
f 57 37 39
f 57 39 55
f 55 39 41
f 55 41 53
f 53 41 43
f 53 43 51
f 51 43 45
f 51 45 49
f 49 45 47
f 183 226 182
f 182 226 227
f 182 227 181
f 181 227 228
f 181 228 270
f 270 228 229
f 270 229 269
f 269 229 230
f 269 230 268
f 268 230 231
f 268 231 267
f 267 231 232
f 267 232 266
f 266 232 233
f 266 233 265
f 265 233 234
f 265 234 264
f 264 234 235
f 264 235 263
f 263 235 236
f 263 236 262
f 262 236 237
f 262 237 261
f 261 237 238
f 261 238 260
f 260 238 239
f 260 239 259
f 259 239 240
f 259 240 258
f 258 240 241
f 258 241 257
f 257 241 242
f 257 242 256
f 256 242 243
f 256 243 255
f 255 243 244
f 255 244 254
f 254 244 245
f 254 245 253
f 253 245 246
f 253 246 252
f 252 246 247
f 252 247 251
f 251 247 248
f 251 248 250
f 250 248 249
f 226 183 225
f 225 183 184
f 225 184 224
f 224 184 185
f 224 185 223
f 223 185 186
f 223 186 222
f 222 186 187
f 222 187 221
f 221 187 188
f 221 188 220
f 220 188 189
f 220 189 219
f 219 189 190
f 219 190 218
f 218 190 191
f 218 191 217
f 217 191 192
f 217 192 216
f 216 192 193
f 216 193 215
f 215 193 194
f 215 194 214
f 214 194 195
f 214 195 213
f 213 195 196
f 213 196 212
f 212 196 197
f 212 197 211
f 211 197 198
f 211 198 210
f 210 198 199
f 210 199 209
f 209 199 200
f 209 200 208
f 208 200 201
f 208 201 207
f 207 201 202
f 207 202 206
f 206 202 203
f 206 203 205
f 205 203 204

