# https://github.com/mikedh/trimesh

o cylinder6.stl
v -39.90468979 2.75964570 50.00000000
v -39.90468979 2.75964570 0.00000000
v -40.00000000 -0.00000000 50.00000000
v -40.00000000 -0.00000000 0.00000000
v -39.90468979 -2.75964570 50.00000000
v -39.90468979 -2.75964570 0.00000000
v -39.61921692 -5.50614071 50.00000000
v -39.61921692 -5.50614071 0.00000000
v -39.14493942 -8.22639656 50.00000000
v -39.14493942 -8.22639656 0.00000000
v -38.48411942 -10.90744877 50.00000000
v -38.48411942 -10.90744877 -0.00000000
v -37.63990784 -13.53652287 50.00000000
v -37.63990784 -13.53652287 -0.00000000
v -36.61632156 -16.10108948 50.00000000
v -36.61632156 -16.10108948 -0.00000000
v -35.41823959 -18.58892632 50.00000000
v -35.41823959 -18.58892632 -0.00000000
v -34.05137634 -20.98818016 50.00000000
v -34.05137634 -20.98818016 -0.00000000
v -32.52224350 -23.28741455 50.00000000
v -32.52224350 -23.28741455 -0.00000000
v -30.83812714 -25.47567368 50.00000000
v -30.83812714 -25.47567368 -0.00000000
v -29.00705147 -27.54253006 50.00000000
v -29.00705147 -27.54253006 -0.00000000
v -27.03774643 -29.47813225 50.00000000
v -27.03774643 -29.47813225 -0.00000000
v -24.93959236 -31.27326012 50.00000000
v -24.93959236 -31.27326012 -0.00000000
v -22.72258949 -32.91935349 50.00000000
v -22.72258949 -32.91935349 -0.00000000
v -20.39730453 -34.40857315 50.00000000
v -20.39730453 -34.40857315 -0.00000000
v -17.97481537 -35.73382187 50.00000000
v -17.97481537 -35.73382187 -0.00000000
v -15.46667004 -36.88877869 50.00000000
v -15.46667004 -36.88877869 -0.00000000
v -12.88481808 -37.86794662 50.00000000
v -12.88481808 -37.86794662 -0.00000000
v -10.24156380 -38.66665649 50.00000000
v -10.24156380 -38.66665649 -0.00000000
v -7.54950380 -39.28110123 50.00000000
v -7.54950380 -39.28110123 -0.00000000
v -4.82146740 -39.70835495 50.00000000
v -4.82146740 -39.70835495 -0.00000000
v -2.07045412 -39.94638062 50.00000000
v -2.07045412 -39.94638062 -0.00000000
v 0.69042563 -39.99404144 50.00000000
v 0.69042563 -39.99404144 -0.00000000
v 3.44801521 -39.85111237 50.00000000
v 3.44801521 -39.85111237 -0.00000000
v 6.18917322 -39.51827621 50.00000000
v 6.18917322 -39.51827621 -0.00000000
v 8.90083694 -38.99711609 50.00000000
v 8.90083694 -38.99711609 -0.00000000
v 11.57008457 -38.29011917 50.00000000
v 11.57008457 -38.29011917 -0.00000000
v 14.18419552 -37.40065002 50.00000000
v 14.18419552 -37.40065002 -0.00000000
v 16.73071289 -36.33295059 50.00000000
v 16.73071289 -36.33295059 -0.00000000
v 19.19749832 -35.09210587 50.00000000
v 19.19749832 -35.09210587 -0.00000000
v 21.57280159 -33.68403625 50.00000000
v 21.57280159 -33.68403625 -0.00000000
v 23.84529877 -32.11544418 50.00000000
v 23.84529877 -32.11544418 -0.00000000
v 26.00416374 -30.39380646 50.00000000
v 26.00416374 -30.39380646 -0.00000000
v 28.03910637 -28.52732849 50.00000000
v 28.03910637 -28.52732849 -0.00000000
v 29.94042969 -26.52490616 50.00000000
v 29.94042969 -26.52490616 0.00000000
v 31.69907379 -24.39608002 50.00000000
v 31.69907379 -24.39608002 0.00000000
v 33.30665588 -22.15099525 50.00000000
v 33.30665588 -22.15099525 0.00000000
v 34.75551987 -19.80035210 50.00000000
v 34.75551987 -19.80035210 0.00000000
v 36.03875351 -17.35535049 50.00000000
v 36.03875351 -17.35535049 0.00000000
v 37.15024948 -14.82764149 50.00000000
v 37.15024948 -14.82764149 0.00000000
v 38.08470535 -12.22927284 50.00000000
v 38.08470535 -12.22927284 0.00000000
v 38.83767319 -9.57262611 50.00000000
v 38.83767319 -9.57262611 0.00000000
v 39.40555954 -6.87036228 50.00000000
v 39.40555954 -6.87036228 0.00000000
v 39.78565979 -4.13535738 50.00000000
v 39.78565979 -4.13535738 0.00000000
v 39.97616577 -1.38064551 50.00000000
v 39.97616577 -1.38064551 0.00000000
v 39.97616577 1.38064551 50.00000000
v 39.97616577 1.38064551 0.00000000
v 39.78565979 4.13535738 50.00000000
v 39.78565979 4.13535738 0.00000000
v 39.40555954 6.87036228 50.00000000
v 39.40555954 6.87036228 0.00000000
v 38.83767319 9.57262611 50.00000000
v 38.83767319 9.57262611 0.00000000
v 38.08470535 12.22927284 50.00000000
v 38.08470535 12.22927284 0.00000000
v 37.15024948 14.82764149 50.00000000
v 37.15024948 14.82764149 0.00000000
v 36.03875351 17.35535049 50.00000000
v 36.03875351 17.35535049 0.00000000
v 34.75551987 19.80035210 50.00000000
v 34.75551987 19.80035210 0.00000000
v 33.30665588 22.15099525 50.00000000
v 33.30665588 22.15099525 0.00000000
v 31.69907379 24.39608002 50.00000000
v 31.69907379 24.39608002 0.00000000
v 29.94042969 26.52490616 50.00000000
v 29.94042969 26.52490616 0.00000000
v 28.03910637 28.52732849 50.00000000
v 28.03910637 28.52732849 0.00000000
v 26.00416374 30.39380646 50.00000000
v 26.00416374 30.39380646 0.00000000
v 23.84529877 32.11544418 50.00000000
v 23.84529877 32.11544418 0.00000000
v 21.57280159 33.68403625 50.00000000
v 21.57280159 33.68403625 0.00000000
v 19.19749832 35.09210587 50.00000000
v 19.19749832 35.09210587 0.00000000
v 16.73071289 36.33295059 50.00000000
v 16.73071289 36.33295059 0.00000000
v 14.18419552 37.40065002 50.00000000
v 14.18419552 37.40065002 0.00000000
v 11.57008457 38.29011917 50.00000000
v 11.57008457 38.29011917 0.00000000
v 8.90083694 38.99711609 50.00000000
v 8.90083694 38.99711609 0.00000000
v 6.18917322 39.51827621 50.00000000
v 6.18917322 39.51827621 0.00000000
v 3.44801521 39.85111237 50.00000000
v 3.44801521 39.85111237 0.00000000
v 0.69042563 39.99404144 50.00000000
v 0.69042563 39.99404144 0.00000000
v -2.07045412 39.94638062 50.00000000
v -2.07045412 39.94638062 0.00000000
v -4.82146740 39.70835495 50.00000000
v -4.82146740 39.70835495 0.00000000
v -7.54950380 39.28110123 50.00000000
v -7.54950380 39.28110123 0.00000000
v -10.24156380 38.66665649 50.00000000
v -10.24156380 38.66665649 0.00000000
v -12.88481808 37.86794662 50.00000000
v -12.88481808 37.86794662 0.00000000
v -15.46667004 36.88877869 50.00000000
v -15.46667004 36.88877869 0.00000000
v -17.97481537 35.73382187 50.00000000
v -17.97481537 35.73382187 0.00000000
v -20.39730453 34.40857315 50.00000000
v -20.39730453 34.40857315 0.00000000
v -22.72258949 32.91935349 50.00000000
v -22.72258949 32.91935349 0.00000000
v -24.93959236 31.27326012 50.00000000
v -24.93959236 31.27326012 0.00000000
v -27.03774643 29.47813225 50.00000000
v -27.03774643 29.47813225 0.00000000
v -29.00705147 27.54253006 50.00000000
v -29.00705147 27.54253006 0.00000000
v -30.83812714 25.47567368 50.00000000
v -30.83812714 25.47567368 0.00000000
v -32.52224350 23.28741455 50.00000000
v -32.52224350 23.28741455 0.00000000
v -34.05137634 20.98818016 50.00000000
v -34.05137634 20.98818016 0.00000000
v -35.41823959 18.58892632 50.00000000
v -35.41823959 18.58892632 0.00000000
v -36.61632156 16.10108948 50.00000000
v -36.61632156 16.10108948 0.00000000
v -37.63990784 13.53652287 50.00000000
v -37.63990784 13.53652287 0.00000000
v -38.48411942 10.90744877 50.00000000
v -38.48411942 10.90744877 0.00000000
v -39.14493942 8.22639656 50.00000000
v -39.14493942 8.22639656 0.00000000
v -39.61921692 5.50614071 50.00000000
v -39.61921692 5.50614071 0.00000000
v -39.90468979 -2.75964570 -50.00000000
v -40.00000000 0.00000000 -50.00000000
v -39.90468979 2.75964570 -50.00000000
v -39.61921692 5.50614071 -50.00000000
v -39.14493942 8.22639656 -50.00000000
v -38.48411942 10.90744877 -50.00000000
v -37.63990784 13.53652287 -50.00000000
v -36.61632156 16.10108948 -50.00000000
v -35.41823959 18.58892632 -50.00000000
v -34.05137634 20.98818016 -50.00000000
v -32.52224350 23.28741455 -50.00000000
v -30.83812714 25.47567368 -50.00000000
v -29.00705147 27.54253006 -50.00000000
v -27.03774643 29.47813225 -50.00000000
v -24.93959236 31.27326012 -50.00000000
v -22.72258949 32.91935349 -50.00000000
v -20.39730453 34.40857315 -50.00000000
v -17.97481537 35.73382187 -50.00000000
v -15.46667004 36.88877869 -50.00000000
v -12.88481808 37.86794662 -50.00000000
v -10.24156380 38.66665649 -50.00000000
v -7.54950380 39.28110123 -50.00000000
v -4.82146740 39.70835495 -50.00000000
v -2.07045412 39.94638062 -50.00000000
v 0.69042563 39.99404144 -50.00000000
v 3.44801521 39.85111237 -50.00000000
v 6.18917322 39.51827621 -50.00000000
v 8.90083694 38.99711609 -50.00000000
v 11.57008457 38.29011917 -50.00000000
v 14.18419552 37.40065002 -50.00000000
v 16.73071289 36.33295059 -50.00000000
v 19.19749832 35.09210587 -50.00000000
v 21.57280159 33.68403625 -50.00000000
v 23.84529877 32.11544418 -50.00000000
v 26.00416374 30.39380646 -50.00000000
v 28.03910637 28.52732849 -50.00000000
v 29.94042969 26.52490616 -50.00000000
v 31.69907379 24.39608002 -50.00000000
v 33.30665588 22.15099525 -50.00000000
v 34.75551987 19.80035210 -50.00000000
v 36.03875351 17.35535049 -50.00000000
v 37.15024948 14.82764149 -50.00000000
v 38.08470535 12.22927284 -50.00000000
v 38.83767319 9.57262611 -50.00000000
v 39.40555954 6.87036228 -50.00000000
v 39.78565979 4.13535738 -50.00000000
v 39.97616577 1.38064551 -50.00000000
v 39.97616577 -1.38064551 -50.00000000
v 39.78565979 -4.13535738 -50.00000000
v 39.40555954 -6.87036228 -50.00000000
v 38.83767319 -9.57262611 -50.00000000
v 38.08470535 -12.22927284 -50.00000000
v 37.15024948 -14.82764149 -50.00000000
v 36.03875351 -17.35535049 -50.00000000
v 34.75551987 -19.80035210 -50.00000000
v 33.30665588 -22.15099525 -50.00000000
v 31.69907379 -24.39608002 -50.00000000
v 29.94042969 -26.52490616 -50.00000000
v 28.03910637 -28.52732849 -50.00000000
v 26.00416374 -30.39380646 -50.00000000
v 23.84529877 -32.11544418 -50.00000000
v 21.57280159 -33.68403625 -50.00000000
v 19.19749832 -35.09210587 -50.00000000
v 16.73071289 -36.33295059 -50.00000000
v 14.18419552 -37.40065002 -50.00000000
v 11.57008457 -38.29011917 -50.00000000
v 8.90083694 -38.99711609 -50.00000000
v 6.18917322 -39.51827621 -50.00000000
v 3.44801521 -39.85111237 -50.00000000
v 0.69042563 -39.99404144 -50.00000000
v -2.07045412 -39.94638062 -50.00000000
v -4.82146740 -39.70835495 -50.00000000
v -7.54950380 -39.28110123 -50.00000000
v -10.24156380 -38.66665649 -50.00000000
v -12.88481808 -37.86794662 -50.00000000
v -15.46667004 -36.88877869 -50.00000000
v -17.97481537 -35.73382187 -50.00000000
v -20.39730453 -34.40857315 -50.00000000
v -22.72258949 -32.91935349 -50.00000000
v -24.93959236 -31.27326012 -50.00000000
v -27.03774643 -29.47813225 -50.00000000
v -29.00705147 -27.54253006 -50.00000000
v -30.83812714 -25.47567368 -50.00000000
v -32.52224350 -23.28741455 -50.00000000
v -34.05137634 -20.98818016 -50.00000000
v -35.41823959 -18.58892632 -50.00000000
v -36.61632156 -16.10108948 -50.00000000
v -37.63990784 -13.53652287 -50.00000000
v -38.48411942 -10.90744877 -50.00000000
v -39.14493942 -8.22639656 -50.00000000
v -39.61921692 -5.50614071 -50.00000000
f 1 2 3
f 3 2 4
f 3 4 5
f 5 4 6
f 5 6 7
f 7 6 8
f 7 8 9
f 9 8 10
f 9 10 11
f 11 10 12
f 11 12 13
f 13 12 14
f 13 14 15
f 15 14 16
f 15 16 17
f 17 16 18
f 17 18 19
f 19 18 20
f 19 20 21
f 21 20 22
f 21 22 23
f 23 22 24
f 23 24 25
f 25 24 26
f 25 26 27
f 27 26 28
f 27 28 29
f 29 28 30
f 29 30 31
f 31 30 32
f 31 32 33
f 33 32 34
f 33 34 35
f 35 34 36
f 35 36 37
f 37 36 38
f 37 38 39
f 39 38 40
f 39 40 41
f 41 40 42
f 41 42 43
f 43 42 44
f 43 44 45
f 45 44 46
f 45 46 47
f 47 46 48
f 47 48 49
f 49 48 50
f 49 50 51
f 51 50 52
f 51 52 53
f 53 52 54
f 53 54 55
f 55 54 56
f 55 56 57
f 57 56 58
f 57 58 59
f 59 58 60
f 59 60 61
f 61 60 62
f 61 62 63
f 63 62 64
f 63 64 65
f 65 64 66
f 65 66 67
f 67 66 68
f 67 68 69
f 69 68 70
f 69 70 71
f 71 70 72
f 71 72 73
f 73 72 74
f 73 74 75
f 75 74 76
f 75 76 77
f 77 76 78
f 77 78 79
f 79 78 80
f 79 80 81
f 81 80 82
f 81 82 83
f 83 82 84
f 83 84 85
f 85 84 86
f 85 86 87
f 87 86 88
f 87 88 89
f 89 88 90
f 89 90 91
f 91 90 92
f 91 92 93
f 93 92 94
f 93 94 95
f 95 94 96
f 95 96 97
f 97 96 98
f 97 98 99
f 99 98 100
f 99 100 101
f 101 100 102
f 101 102 103
f 103 102 104
f 103 104 105
f 105 104 106
f 105 106 107
f 107 106 108
f 107 108 109
f 109 108 110
f 109 110 111
f 111 110 112
f 111 112 113
f 113 112 114
f 113 114 115
f 115 114 116
f 115 116 117
f 117 116 118
f 117 118 119
f 119 118 120
f 119 120 121
f 121 120 122
f 121 122 123
f 123 122 124
f 123 124 125
f 125 124 126
f 125 126 127
f 127 126 128
f 127 128 129
f 129 128 130
f 129 130 131
f 131 130 132
f 131 132 133
f 133 132 134
f 133 134 135
f 135 134 136
f 135 136 137
f 137 136 138
f 137 138 139
f 139 138 140
f 139 140 141
f 141 140 142
f 141 142 143
f 143 142 144
f 143 144 145
f 145 144 146
f 145 146 147
f 147 146 148
f 147 148 149
f 149 148 150
f 149 150 151
f 151 150 152
f 151 152 153
f 153 152 154
f 153 154 155
f 155 154 156
f 155 156 157
f 157 156 158
f 157 158 159
f 159 158 160
f 159 160 161
f 161 160 162
f 161 162 163
f 163 162 164
f 163 164 165
f 165 164 166
f 165 166 167
f 167 166 168
f 167 168 169
f 169 168 170
f 169 170 171
f 171 170 172
f 171 172 173
f 173 172 174
f 173 174 175
f 175 174 176
f 175 176 177
f 177 176 178
f 177 178 179
f 179 178 180
f 179 180 181
f 181 180 182
f 181 182 1
f 1 182 2
f 183 6 184
f 184 6 4
f 184 4 185
f 185 4 2
f 185 2 186
f 186 2 182
f 186 182 187
f 187 182 180
f 187 180 188
f 188 180 178
f 188 178 189
f 189 178 176
f 189 176 190
f 190 176 174
f 190 174 191
f 191 174 172
f 191 172 192
f 192 172 170
f 192 170 193
f 193 170 168
f 193 168 194
f 194 168 166
f 194 166 195
f 195 166 164
f 195 164 196
f 196 164 162
f 196 162 197
f 197 162 160
f 197 160 198
f 198 160 158
f 198 158 199
f 199 158 156
f 199 156 200
f 200 156 154
f 200 154 201
f 201 154 152
f 201 152 202
f 202 152 150
f 202 150 203
f 203 150 148
f 203 148 204
f 204 148 146
f 204 146 205
f 205 146 144
f 205 144 206
f 206 144 142
f 206 142 207
f 207 142 140
f 207 140 208
f 208 140 138
f 208 138 209
f 209 138 136
f 209 136 210
f 210 136 134
f 210 134 211
f 211 134 132
f 211 132 212
f 212 132 130
f 212 130 213
f 213 130 128
f 213 128 214
f 214 128 126
f 214 126 215
f 215 126 124
f 215 124 216
f 216 124 122
f 216 122 217
f 217 122 120
f 217 120 218
f 218 120 118
f 218 118 219
f 219 118 116
f 219 116 220
f 220 116 114
f 220 114 221
f 221 114 112
f 221 112 222
f 222 112 110
f 222 110 223
f 223 110 108
f 223 108 224
f 224 108 106
f 224 106 225
f 225 106 104
f 225 104 226
f 226 104 102
f 226 102 227
f 227 102 100
f 227 100 228
f 228 100 98
f 228 98 229
f 229 98 96
f 229 96 230
f 230 96 94
f 230 94 231
f 231 94 92
f 231 92 232
f 232 92 90
f 232 90 233
f 233 90 88
f 233 88 234
f 234 88 86
f 234 86 235
f 235 86 84
f 235 84 236
f 236 84 82
f 236 82 237
f 237 82 80
f 237 80 238
f 238 80 78
f 238 78 239
f 239 78 76
f 239 76 240
f 240 76 74
f 240 74 241
f 241 74 72
f 241 72 242
f 242 72 70
f 242 70 243
f 243 70 68
f 243 68 244
f 244 68 66
f 244 66 245
f 245 66 64
f 245 64 246
f 246 64 62
f 246 62 247
f 247 62 60
f 247 60 248
f 248 60 58
f 248 58 249
f 249 58 56
f 249 56 250
f 250 56 54
f 250 54 251
f 251 54 52
f 251 52 252
f 252 52 50
f 252 50 253
f 253 50 48
f 253 48 254
f 254 48 46
f 254 46 255
f 255 46 44
f 255 44 256
f 256 44 42
f 256 42 257
f 257 42 40
f 257 40 258
f 258 40 38
f 258 38 259
f 259 38 36
f 259 36 260
f 260 36 34
f 260 34 261
f 261 34 32
f 261 32 262
f 262 32 30
f 262 30 263
f 263 30 28
f 263 28 264
f 264 28 26
f 264 26 265
f 265 26 24
f 265 24 266
f 266 24 22
f 266 22 267
f 267 22 20
f 267 20 268
f 268 20 18
f 268 18 269
f 269 18 16
f 269 16 270
f 270 16 14
f 270 14 271
f 271 14 12
f 271 12 272
f 272 12 10
f 272 10 273
f 273 10 8
f 273 8 183
f 183 8 6
f 5 93 3
f 3 93 95
f 3 95 1
f 1 95 97
f 1 97 181
f 181 97 99
f 181 99 179
f 179 99 101
f 179 101 103
f 93 5 91
f 91 5 7
f 91 7 89
f 89 7 9
f 89 9 87
f 87 9 11
f 87 11 85
f 85 11 13
f 85 13 83
f 83 13 15
f 83 15 81
f 81 15 17
f 81 17 79
f 79 17 19
f 79 19 77
f 77 19 21
f 77 21 75
f 75 21 23
f 75 23 73
f 73 23 25
f 73 25 71
f 71 25 27
f 71 27 69
f 69 27 29
f 69 29 67
f 67 29 31
f 67 31 65
f 65 31 33
f 65 33 63
f 63 33 35
f 63 35 61
f 61 35 37
f 61 37 59
f 59 37 39
f 59 39 57
f 57 39 41
f 57 41 55
f 55 41 43
f 55 43 53
f 53 43 45
f 53 45 51
f 51 45 47
f 51 47 49
f 103 105 179
f 179 105 107
f 179 107 109
f 109 111 179
f 179 111 113
f 179 113 115
f 115 117 179
f 179 117 119
f 179 119 121
f 121 123 179
f 179 123 125
f 179 125 127
f 127 129 179
f 179 129 131
f 179 131 133
f 133 135 179
f 179 135 137
f 179 137 139
f 139 141 179
f 179 141 143
f 179 143 145
f 145 147 179
f 179 147 149
f 179 149 151
f 151 153 179
f 179 153 155
f 179 155 157
f 157 159 179
f 179 159 161
f 179 161 163
f 163 165 179
f 179 165 167
f 179 167 169
f 169 171 179
f 179 171 173
f 179 173 175
f 175 177 179
f 185 229 184
f 184 229 230
f 184 230 183
f 183 230 231
f 183 231 273
f 273 231 232
f 273 232 272
f 272 232 233
f 272 233 271
f 271 233 234
f 271 234 270
f 270 234 235
f 270 235 269
f 269 235 236
f 269 236 268
f 268 236 237
f 268 237 267
f 267 237 238
f 267 238 266
f 266 238 239
f 266 239 265
f 265 239 240
f 265 240 264
f 264 240 241
f 264 241 263
f 263 241 242
f 263 242 262
f 262 242 243
f 262 243 261
f 261 243 244
f 261 244 260
f 260 244 245
f 260 245 259
f 259 245 246
f 259 246 258
f 258 246 247
f 258 247 257
f 257 247 248
f 257 248 256
f 256 248 249
f 256 249 255
f 255 249 250
f 255 250 254
f 254 250 251
f 254 251 253
f 253 251 252
f 229 185 228
f 228 185 186
f 228 186 227
f 227 186 187
f 227 187 226
f 226 187 225
f 225 187 224
f 224 187 223
f 223 187 222
f 222 187 221
f 221 187 220
f 220 187 219
f 219 187 218
f 218 187 217
f 217 187 216
f 216 187 215
f 215 187 214
f 214 187 213
f 213 187 212
f 212 187 211
f 211 187 210
f 210 187 209
f 209 187 208
f 208 187 207
f 207 187 206
f 206 187 205
f 205 187 204
f 204 187 203
f 203 187 202
f 202 187 201
f 201 187 200
f 200 187 199
f 199 187 198
f 198 187 197
f 197 187 196
f 196 187 195
f 195 187 194
f 194 187 193
f 193 187 192
f 192 187 191
f 191 187 190
f 190 187 189
f 189 187 188

