# https://github.com/mikedh/trimesh

o cylinder4.stl
v -4.90964365 0.94625622 75.00000000
v -4.90964365 0.94625622 56.25000000
v -5.00000000 -0.00000000 75.00000000
v -5.00000000 -0.00000000 56.25000000
v -4.90964365 -0.94625622 75.00000000
v -4.90964365 -0.94625622 56.25000000
v -4.64183950 -1.85831225 75.00000000
v -4.64183950 -1.85831225 56.25000000
v -4.20626783 -2.70320415 75.00000000
v -4.20626783 -2.70320415 56.25000000
v -3.61867023 -3.45039511 75.00000000
v -3.61867023 -3.45039511 56.25000000
v -2.90028453 -4.07287979 75.00000000
v -2.90028453 -4.07287979 56.25000000
v -2.07707500 -4.54816008 75.00000000
v -2.07707500 -4.54816008 56.25000000
v -1.17879462 -4.85905790 75.00000000
v -1.17879462 -4.85905790 56.25000000
v -0.23790959 -4.99433661 75.00000000
v -0.23790959 -4.99433661 56.25000000
v 0.71157420 -4.94910717 75.00000000
v 0.71157420 -4.94910717 56.25000000
v 1.63533986 -4.72500420 75.00000000
v 1.63533986 -4.72500420 56.25000000
v 2.50000000 -4.33012724 75.00000000
v 2.50000000 -4.33012724 56.25000000
v 3.27430367 -3.77874780 75.00000000
v 3.27430367 -3.77874780 56.25000000
v 3.93026543 -3.09079504 75.00000000
v 3.93026543 -3.09079504 56.25000000
v 4.44417715 -2.29113269 75.00000000
v 4.44417715 -2.29113269 56.25000000
v 4.79746485 -1.40866280 75.00000000
v 4.79746485 -1.40866280 56.25000000
v 4.97735977 -0.47528023 75.00000000
v 4.97735977 -0.47528023 56.25000000
v 4.97735977 0.47528023 75.00000000
v 4.97735977 0.47528023 56.25000000
v 4.79746485 1.40866280 75.00000000
v 4.79746485 1.40866280 56.25000000
v 4.44417715 2.29113269 75.00000000
v 4.44417715 2.29113269 56.25000000
v 3.93026543 3.09079504 75.00000000
v 3.93026543 3.09079504 56.25000000
v 3.27430367 3.77874780 75.00000000
v 3.27430367 3.77874780 56.25000000
v 2.50000000 4.33012724 75.00000000
v 2.50000000 4.33012724 56.25000000
v 1.63533986 4.72500420 75.00000000
v 1.63533986 4.72500420 56.25000000
v 0.71157420 4.94910717 75.00000000
v 0.71157420 4.94910717 56.25000000
v -0.23790959 4.99433661 75.00000000
v -0.23790959 4.99433661 56.25000000
v -1.17879462 4.85905790 75.00000000
v -1.17879462 4.85905790 56.25000000
v -2.07707500 4.54816008 75.00000000
v -2.07707500 4.54816008 56.25000000
v -2.90028453 4.07287979 75.00000000
v -2.90028453 4.07287979 56.25000000
v -3.61867023 3.45039511 75.00000000
v -3.61867023 3.45039511 56.25000000
v -4.20626783 2.70320415 75.00000000
v -4.20626783 2.70320415 56.25000000
v -4.64183950 1.85831225 75.00000000
v -4.64183950 1.85831225 56.25000000
v -4.90964365 -0.94625622 -75.00000000
v -4.90964365 -0.94625622 -56.25000000
v -5.00000000 0.00000000 -75.00000000
v -5.00000000 0.00000000 -56.25000000
v -4.90964365 0.94625622 -75.00000000
v -4.90964365 0.94625622 -56.25000000
v -4.64183950 1.85831225 -75.00000000
v -4.64183950 1.85831225 -56.25000000
v -4.20626783 2.70320415 -75.00000000
v -4.20626783 2.70320415 -56.25000000
v -3.61867023 3.45039511 -75.00000000
v -3.61867023 3.45039511 -56.25000000
v -2.90028453 4.07287979 -75.00000000
v -2.90028453 4.07287979 -56.25000000
v -2.07707500 4.54816008 -75.00000000
v -2.07707500 4.54816008 -56.25000000
v -1.17879462 4.85905790 -75.00000000
v -1.17879462 4.85905790 -56.25000000
v -0.23790959 4.99433661 -75.00000000
v -0.23790959 4.99433661 -56.25000000
v 0.71157420 4.94910717 -75.00000000
v 0.71157420 4.94910717 -56.25000000
v 1.63533986 4.72500420 -75.00000000
v 1.63533986 4.72500420 -56.25000000
v 2.50000000 4.33012724 -75.00000000
v 2.50000000 4.33012724 -56.25000000
v 3.27430367 3.77874780 -75.00000000
v 3.27430367 3.77874780 -56.25000000
v 3.93026543 3.09079504 -75.00000000
v 3.93026543 3.09079504 -56.25000000
v 4.44417715 2.29113269 -75.00000000
v 4.44417715 2.29113269 -56.25000000
v 4.79746485 1.40866280 -75.00000000
v 4.79746485 1.40866280 -56.25000000
v 4.97735977 0.47528023 -75.00000000
v 4.97735977 0.47528023 -56.25000000
v 4.97735977 -0.47528023 -75.00000000
v 4.97735977 -0.47528023 -56.25000000
v 4.79746485 -1.40866280 -75.00000000
v 4.79746485 -1.40866280 -56.25000000
v 4.44417715 -2.29113269 -75.00000000
v 4.44417715 -2.29113269 -56.25000000
v 3.93026543 -3.09079504 -75.00000000
v 3.93026543 -3.09079504 -56.25000000
v 3.27430367 -3.77874780 -75.00000000
v 3.27430367 -3.77874780 -56.25000000
v 2.50000000 -4.33012724 -75.00000000
v 2.50000000 -4.33012724 -56.25000000
v 1.63533986 -4.72500420 -75.00000000
v 1.63533986 -4.72500420 -56.25000000
v 0.71157420 -4.94910717 -75.00000000
v 0.71157420 -4.94910717 -56.25000000
v -0.23790959 -4.99433661 -75.00000000
v -0.23790959 -4.99433661 -56.25000000
v -1.17879462 -4.85905790 -75.00000000
v -1.17879462 -4.85905790 -56.25000000
v -2.07707500 -4.54816008 -75.00000000
v -2.07707500 -4.54816008 -56.25000000
v -2.90028453 -4.07287979 -75.00000000
v -2.90028453 -4.07287979 -56.25000000
v -3.61867023 -3.45039511 -75.00000000
v -3.61867023 -3.45039511 -56.25000000
v -4.20626783 -2.70320415 -75.00000000
v -4.20626783 -2.70320415 -56.25000000
v -4.64183950 -1.85831225 -75.00000000
v -4.64183950 -1.85831225 -56.25000000
v -5.00000000 -0.00000000 37.50000000
v -4.90964365 -0.94625622 37.50000000
v -4.64183950 -1.85831225 37.50000000
v -4.20626783 -2.70320415 37.50000000
v -3.61867023 -3.45039511 37.50000000
v -2.90028453 -4.07287979 37.50000000
v -2.07707500 -4.54816008 37.50000000
v -1.17879462 -4.85905790 37.50000000
v -0.23790959 -4.99433661 37.50000000
v 0.71157420 -4.94910717 37.50000000
v 1.63533986 -4.72500420 37.50000000
v 2.50000000 -4.33012724 37.50000000
v 3.27430367 -3.77874780 37.50000000
v 3.93026543 -3.09079504 37.50000000
v 4.44417715 -2.29113269 37.50000000
v 4.79746485 -1.40866280 37.50000000
v 4.97735977 -0.47528023 37.50000000
v 4.97735977 0.47528023 37.50000000
v 4.79746485 1.40866280 37.50000000
v 4.44417715 2.29113269 37.50000000
v 3.93026543 3.09079504 37.50000000
v 3.27430367 3.77874780 37.50000000
v 2.50000000 4.33012724 37.50000000
v 1.63533986 4.72500420 37.50000000
v 0.71157420 4.94910717 37.50000000
v -0.23790959 4.99433661 37.50000000
v -1.17879462 4.85905790 37.50000000
v -2.07707500 4.54816008 37.50000000
v -2.90028453 4.07287979 37.50000000
v -3.61867023 3.45039511 37.50000000
v -4.20626783 2.70320415 37.50000000
v -4.64183950 1.85831225 37.50000000
v -4.90964365 0.94625622 37.50000000
v -5.00000000 -0.00000000 18.75000000
v -4.90964365 -0.94625622 18.75000000
v -4.64183950 -1.85831225 18.75000000
v -4.20626783 -2.70320415 18.75000000
v -3.61867023 -3.45039511 18.75000000
v -2.90028453 -4.07287979 18.75000000
v -2.07707500 -4.54816008 18.75000000
v -1.17879462 -4.85905790 18.75000000
v -0.23790959 -4.99433661 18.75000000
v 0.71157420 -4.94910717 18.75000000
v 1.63533986 -4.72500420 18.75000000
v 2.50000000 -4.33012724 18.75000000
v 3.27430367 -3.77874780 18.75000000
v 3.93026543 -3.09079504 18.75000000
v 4.44417715 -2.29113269 18.75000000
v 4.79746485 -1.40866280 18.75000000
v 4.97735977 -0.47528023 18.75000000
v 4.97735977 0.47528023 18.75000000
v 4.79746485 1.40866280 18.75000000
v 4.44417715 2.29113269 18.75000000
v 3.93026543 3.09079504 18.75000000
v 3.27430367 3.77874780 18.75000000
v 2.50000000 4.33012724 18.75000000
v 1.63533986 4.72500420 18.75000000
v 0.71157420 4.94910717 18.75000000
v -0.23790959 4.99433661 18.75000000
v -1.17879462 4.85905790 18.75000000
v -2.07707500 4.54816008 18.75000000
v -2.90028453 4.07287979 18.75000000
v -3.61867023 3.45039511 18.75000000
v -4.20626783 2.70320415 18.75000000
v -4.64183950 1.85831225 18.75000000
v -4.90964365 0.94625622 18.75000000
v -5.00000000 -0.00000000 -0.00000000
v -4.90964365 -0.94625622 -0.00000000
v -4.64183950 -1.85831225 -0.00000000
v -4.20626783 -2.70320415 -0.00000000
v -3.61867023 -3.45039511 -0.00000000
v -2.90028453 -4.07287979 -0.00000000
v -2.07707500 -4.54816008 -0.00000000
v -1.17879462 -4.85905790 -0.00000000
v -0.23790959 -4.99433661 -0.00000000
v 0.71157420 -4.94910717 -0.00000000
v 1.63533986 -4.72500420 -0.00000000
v 2.50000000 -4.33012724 -0.00000000
v 3.27430367 -3.77874780 -0.00000000
v 3.93026543 -3.09079504 -0.00000000
v 4.44417715 -2.29113269 -0.00000000
v 4.79746485 -1.40866280 -0.00000000
v 4.97735977 -0.47528023 -0.00000000
v 4.97735977 0.47528023 -0.00000000
v 4.79746485 1.40866280 -0.00000000
v 4.44417715 2.29113269 -0.00000000
v 3.93026543 3.09079504 -0.00000000
v 3.27430367 3.77874780 -0.00000000
v 2.50000000 4.33012724 -0.00000000
v 1.63533986 4.72500420 -0.00000000
v 0.71157420 4.94910717 -0.00000000
v -0.23790959 4.99433661 -0.00000000
v -1.17879462 4.85905790 -0.00000000
v -2.07707500 4.54816008 -0.00000000
v -2.90028453 4.07287979 -0.00000000
v -3.61867023 3.45039511 -0.00000000
v -4.20626783 2.70320415 -0.00000000
v -4.64183950 1.85831225 -0.00000000
v -4.90964365 0.94625622 -0.00000000
v -5.00000000 0.00000000 -18.75000000
v -4.90964365 -0.94625622 -18.75000000
v -4.64183950 -1.85831225 -18.75000000
v -4.20626783 -2.70320415 -18.75000000
v -3.61867023 -3.45039511 -18.75000000
v -2.90028453 -4.07287979 -18.75000000
v -2.07707500 -4.54816008 -18.75000000
v -1.17879462 -4.85905790 -18.75000000
v -0.23790959 -4.99433661 -18.75000000
v 0.71157420 -4.94910717 -18.75000000
v 1.63533986 -4.72500420 -18.75000000
v 2.50000000 -4.33012724 -18.75000000
v 3.27430367 -3.77874780 -18.75000000
v 3.93026543 -3.09079504 -18.75000000
v 4.44417715 -2.29113269 -18.75000000
v 4.79746485 -1.40866280 -18.75000000
v 4.97735977 -0.47528023 -18.75000000
v 4.97735977 0.47528023 -18.75000000
v 4.79746485 1.40866280 -18.75000000
v 4.44417715 2.29113269 -18.75000000
v 3.93026543 3.09079504 -18.75000000
v 3.27430367 3.77874780 -18.75000000
v 2.50000000 4.33012724 -18.75000000
v 1.63533986 4.72500420 -18.75000000
v 0.71157420 4.94910717 -18.75000000
v -0.23790959 4.99433661 -18.75000000
v -1.17879462 4.85905790 -18.75000000
v -2.07707500 4.54816008 -18.75000000
v -2.90028453 4.07287979 -18.75000000
v -3.61867023 3.45039511 -18.75000000
v -4.20626783 2.70320415 -18.75000000
v -4.64183950 1.85831225 -18.75000000
v -4.90964365 0.94625622 -18.75000000
v -5.00000000 0.00000000 -37.50000000
v -4.90964365 -0.94625622 -37.50000000
v -4.64183950 -1.85831225 -37.50000000
v -4.20626783 -2.70320415 -37.50000000
v -3.61867023 -3.45039511 -37.50000000
v -2.90028453 -4.07287979 -37.50000000
v -2.07707500 -4.54816008 -37.50000000
v -1.17879462 -4.85905790 -37.50000000
v -0.23790959 -4.99433661 -37.50000000
v 0.71157420 -4.94910717 -37.50000000
v 1.63533986 -4.72500420 -37.50000000
v 2.50000000 -4.33012724 -37.50000000
v 3.27430367 -3.77874780 -37.50000000
v 3.93026543 -3.09079504 -37.50000000
v 4.44417715 -2.29113269 -37.50000000
v 4.79746485 -1.40866280 -37.50000000
v 4.97735977 -0.47528023 -37.50000000
v 4.97735977 0.47528023 -37.50000000
v 4.79746485 1.40866280 -37.50000000
v 4.44417715 2.29113269 -37.50000000
v 3.93026543 3.09079504 -37.50000000
v 3.27430367 3.77874780 -37.50000000
v 2.50000000 4.33012724 -37.50000000
v 1.63533986 4.72500420 -37.50000000
v 0.71157420 4.94910717 -37.50000000
v -0.23790959 4.99433661 -37.50000000
v -1.17879462 4.85905790 -37.50000000
v -2.07707500 4.54816008 -37.50000000
v -2.90028453 4.07287979 -37.50000000
v -3.61867023 3.45039511 -37.50000000
v -4.20626783 2.70320415 -37.50000000
v -4.64183950 1.85831225 -37.50000000
v -4.90964365 0.94625622 -37.50000000
f 1 2 3
f 3 2 4
f 3 4 5
f 5 4 6
f 5 6 7
f 7 6 8
f 7 8 9
f 9 8 10
f 9 10 11
f 11 10 12
f 11 12 13
f 13 12 14
f 13 14 15
f 15 14 16
f 15 16 17
f 17 16 18
f 17 18 19
f 19 18 20
f 19 20 21
f 21 20 22
f 21 22 23
f 23 22 24
f 23 24 25
f 25 24 26
f 25 26 27
f 27 26 28
f 27 28 29
f 29 28 30
f 29 30 31
f 31 30 32
f 31 32 33
f 33 32 34
f 33 34 35
f 35 34 36
f 35 36 37
f 37 36 38
f 37 38 39
f 39 38 40
f 39 40 41
f 41 40 42
f 41 42 43
f 43 42 44
f 43 44 45
f 45 44 46
f 45 46 47
f 47 46 48
f 47 48 49
f 49 48 50
f 49 50 51
f 51 50 52
f 51 52 53
f 53 52 54
f 53 54 55
f 55 54 56
f 55 56 57
f 57 56 58
f 57 58 59
f 59 58 60
f 59 60 61
f 61 60 62
f 61 62 63
f 63 62 64
f 63 64 65
f 65 64 66
f 65 66 1
f 1 66 2
f 67 68 69
f 69 68 70
f 69 70 71
f 71 70 72
f 71 72 73
f 73 72 74
f 73 74 75
f 75 74 76
f 75 76 77
f 77 76 78
f 77 78 79
f 79 78 80
f 79 80 81
f 81 80 82
f 81 82 83
f 83 82 84
f 83 84 85
f 85 84 86
f 85 86 87
f 87 86 88
f 87 88 89
f 89 88 90
f 89 90 91
f 91 90 92
f 91 92 93
f 93 92 94
f 93 94 95
f 95 94 96
f 95 96 97
f 97 96 98
f 97 98 99
f 99 98 100
f 99 100 101
f 101 100 102
f 101 102 103
f 103 102 104
f 103 104 105
f 105 104 106
f 105 106 107
f 107 106 108
f 107 108 109
f 109 108 110
f 109 110 111
f 111 110 112
f 111 112 113
f 113 112 114
f 113 114 115
f 115 114 116
f 115 116 117
f 117 116 118
f 117 118 119
f 119 118 120
f 119 120 121
f 121 120 122
f 121 122 123
f 123 122 124
f 123 124 125
f 125 124 126
f 125 126 127
f 127 126 128
f 127 128 129
f 129 128 130
f 129 130 131
f 131 130 132
f 131 132 67
f 67 132 68
f 4 133 6
f 6 133 134
f 6 134 8
f 8 134 135
f 8 135 10
f 10 135 136
f 10 136 12
f 12 136 137
f 12 137 14
f 14 137 138
f 14 138 16
f 16 138 139
f 16 139 18
f 18 139 140
f 18 140 20
f 20 140 141
f 20 141 22
f 22 141 142
f 22 142 24
f 24 142 143
f 24 143 26
f 26 143 144
f 26 144 28
f 28 144 145
f 28 145 30
f 30 145 146
f 30 146 32
f 32 146 147
f 32 147 34
f 34 147 148
f 34 148 36
f 36 148 149
f 36 149 38
f 38 149 150
f 38 150 40
f 40 150 151
f 40 151 42
f 42 151 152
f 42 152 44
f 44 152 153
f 44 153 46
f 46 153 154
f 46 154 48
f 48 154 155
f 48 155 50
f 50 155 156
f 50 156 52
f 52 156 157
f 52 157 54
f 54 157 158
f 54 158 56
f 56 158 159
f 56 159 58
f 58 159 160
f 58 160 60
f 60 160 161
f 60 161 62
f 62 161 162
f 62 162 64
f 64 162 163
f 64 163 66
f 66 163 164
f 66 164 2
f 2 164 165
f 2 165 4
f 4 165 133
f 133 166 134
f 134 166 167
f 134 167 135
f 135 167 168
f 135 168 136
f 136 168 169
f 136 169 137
f 137 169 170
f 137 170 138
f 138 170 171
f 138 171 139
f 139 171 172
f 139 172 140
f 140 172 173
f 140 173 141
f 141 173 174
f 141 174 142
f 142 174 175
f 142 175 143
f 143 175 176
f 143 176 144
f 144 176 177
f 144 177 145
f 145 177 178
f 145 178 146
f 146 178 179
f 146 179 147
f 147 179 180
f 147 180 148
f 148 180 181
f 148 181 149
f 149 181 182
f 149 182 150
f 150 182 183
f 150 183 151
f 151 183 184
f 151 184 152
f 152 184 185
f 152 185 153
f 153 185 186
f 153 186 154
f 154 186 187
f 154 187 155
f 155 187 188
f 155 188 156
f 156 188 189
f 156 189 157
f 157 189 190
f 157 190 158
f 158 190 191
f 158 191 159
f 159 191 192
f 159 192 160
f 160 192 193
f 160 193 161
f 161 193 194
f 161 194 162
f 162 194 195
f 162 195 163
f 163 195 196
f 163 196 164
f 164 196 197
f 164 197 165
f 165 197 198
f 165 198 133
f 133 198 166
f 166 199 167
f 167 199 200
f 167 200 168
f 168 200 201
f 168 201 169
f 169 201 202
f 169 202 170
f 170 202 203
f 170 203 171
f 171 203 204
f 171 204 172
f 172 204 205
f 172 205 173
f 173 205 206
f 173 206 174
f 174 206 207
f 174 207 175
f 175 207 208
f 175 208 176
f 176 208 209
f 176 209 177
f 177 209 210
f 177 210 178
f 178 210 211
f 178 211 179
f 179 211 212
f 179 212 180
f 180 212 213
f 180 213 181
f 181 213 214
f 181 214 182
f 182 214 215
f 182 215 183
f 183 215 216
f 183 216 184
f 184 216 217
f 184 217 185
f 185 217 218
f 185 218 186
f 186 218 219
f 186 219 187
f 187 219 220
f 187 220 188
f 188 220 221
f 188 221 189
f 189 221 222
f 189 222 190
f 190 222 223
f 190 223 191
f 191 223 224
f 191 224 192
f 192 224 225
f 192 225 193
f 193 225 226
f 193 226 194
f 194 226 227
f 194 227 195
f 195 227 228
f 195 228 196
f 196 228 229
f 196 229 197
f 197 229 230
f 197 230 198
f 198 230 231
f 198 231 166
f 166 231 199
f 199 232 200
f 200 232 233
f 200 233 201
f 201 233 234
f 201 234 202
f 202 234 235
f 202 235 203
f 203 235 236
f 203 236 204
f 204 236 237
f 204 237 205
f 205 237 238
f 205 238 206
f 206 238 239
f 206 239 207
f 207 239 240
f 207 240 208
f 208 240 241
f 208 241 209
f 209 241 242
f 209 242 210
f 210 242 243
f 210 243 211
f 211 243 244
f 211 244 212
f 212 244 245
f 212 245 213
f 213 245 246
f 213 246 214
f 214 246 247
f 214 247 215
f 215 247 248
f 215 248 216
f 216 248 249
f 216 249 217
f 217 249 250
f 217 250 218
f 218 250 251
f 218 251 219
f 219 251 252
f 219 252 220
f 220 252 253
f 220 253 221
f 221 253 254
f 221 254 222
f 222 254 255
f 222 255 223
f 223 255 256
f 223 256 224
f 224 256 257
f 224 257 225
f 225 257 258
f 225 258 226
f 226 258 259
f 226 259 227
f 227 259 260
f 227 260 228
f 228 260 261
f 228 261 229
f 229 261 262
f 229 262 230
f 230 262 263
f 230 263 231
f 231 263 264
f 231 264 199
f 199 264 232
f 232 265 233
f 233 265 266
f 233 266 234
f 234 266 267
f 234 267 235
f 235 267 268
f 235 268 236
f 236 268 269
f 236 269 237
f 237 269 270
f 237 270 238
f 238 270 271
f 238 271 239
f 239 271 272
f 239 272 240
f 240 272 273
f 240 273 241
f 241 273 274
f 241 274 242
f 242 274 275
f 242 275 243
f 243 275 276
f 243 276 244
f 244 276 277
f 244 277 245
f 245 277 278
f 245 278 246
f 246 278 279
f 246 279 247
f 247 279 280
f 247 280 248
f 248 280 281
f 248 281 249
f 249 281 282
f 249 282 250
f 250 282 283
f 250 283 251
f 251 283 284
f 251 284 252
f 252 284 285
f 252 285 253
f 253 285 286
f 253 286 254
f 254 286 287
f 254 287 255
f 255 287 288
f 255 288 256
f 256 288 289
f 256 289 257
f 257 289 290
f 257 290 258
f 258 290 291
f 258 291 259
f 259 291 292
f 259 292 260
f 260 292 293
f 260 293 261
f 261 293 294
f 261 294 262
f 262 294 295
f 262 295 263
f 263 295 296
f 263 296 264
f 264 296 297
f 264 297 232
f 232 297 265
f 265 70 266
f 266 70 68
f 266 68 267
f 267 68 132
f 267 132 268
f 268 132 130
f 268 130 269
f 269 130 128
f 269 128 270
f 270 128 126
f 270 126 271
f 271 126 124
f 271 124 272
f 272 124 122
f 272 122 273
f 273 122 120
f 273 120 274
f 274 120 118
f 274 118 275
f 275 118 116
f 275 116 276
f 276 116 114
f 276 114 277
f 277 114 112
f 277 112 278
f 278 112 110
f 278 110 279
f 279 110 108
f 279 108 280
f 280 108 106
f 280 106 281
f 281 106 104
f 281 104 282
f 282 104 102
f 282 102 283
f 283 102 100
f 283 100 284
f 284 100 98
f 284 98 285
f 285 98 96
f 285 96 286
f 286 96 94
f 286 94 287
f 287 94 92
f 287 92 288
f 288 92 90
f 288 90 289
f 289 90 88
f 289 88 290
f 290 88 86
f 290 86 291
f 291 86 84
f 291 84 292
f 292 84 82
f 292 82 293
f 293 82 80
f 293 80 294
f 294 80 78
f 294 78 295
f 295 78 76
f 295 76 296
f 296 76 74
f 296 74 297
f 297 74 72
f 297 72 265
f 265 72 70
f 1 3 27
f 27 3 5
f 27 5 7
f 7 9 27
f 27 9 11
f 27 11 13
f 27 13 25
f 25 13 15
f 25 15 23
f 23 15 17
f 23 17 21
f 21 17 19
f 27 29 1
f 1 29 65
f 65 29 63
f 63 29 61
f 61 29 59
f 59 29 57
f 57 29 55
f 55 29 53
f 53 29 51
f 51 29 49
f 49 29 47
f 47 29 45
f 45 29 43
f 43 29 31
f 43 31 41
f 41 31 33
f 41 33 39
f 39 33 35
f 39 35 37
f 67 69 111
f 111 69 71
f 111 71 109
f 109 71 73
f 109 73 75
f 75 77 109
f 109 77 79
f 109 79 81
f 81 83 109
f 109 83 85
f 109 85 87
f 87 89 109
f 109 89 91
f 109 91 93
f 93 95 109
f 109 95 107
f 107 95 97
f 107 97 105
f 105 97 99
f 105 99 103
f 103 99 101
f 113 125 111
f 111 125 127
f 111 127 129
f 125 113 123
f 123 113 115
f 123 115 121
f 121 115 117
f 121 117 119
f 129 131 111
f 111 131 67

