# https://github.com/mikedh/trimesh

o cylinder3.stl
v -14.93207932 1.42584062 50.00000000
v -14.93207932 1.42584062 25.00000000
v -15.00000000 -0.00000000 50.00000000
v -15.00000000 -0.00000000 25.00000000
v -14.93207932 -1.42584062 50.00000000
v -14.93207932 -1.42584062 25.00000000
v -14.72893047 -2.83876872 50.00000000
v -14.72893047 -2.83876872 25.00000000
v -14.39239502 -4.22598839 50.00000000
v -14.39239502 -4.22598839 25.00000000
v -13.92551899 -5.57493687 50.00000000
v -13.92551899 -5.57493687 25.00000000
v -13.33253193 -6.87339783 50.00000000
v -13.33253193 -6.87339783 25.00000000
v -12.61880302 -8.10961246 50.00000000
v -12.61880302 -8.10961246 25.00000000
v -11.79079628 -9.27238464 50.00000000
v -11.79079628 -9.27238464 25.00000000
v -10.85601044 -10.35118484 50.00000000
v -10.85601044 -10.35118484 25.00000000
v -9.82291126 -11.33624363 50.00000000
v -9.82291126 -11.33624363 25.00000000
v -8.70085335 -12.21863937 50.00000000
v -8.70085335 -12.21863937 25.00000000
v -7.50000000 -12.99038124 50.00000000
v -7.50000000 -12.99038124 25.00000000
v -6.23122501 -13.64447975 50.00000000
v -6.23122501 -13.64447975 25.00000000
v -4.90601969 -14.17501259 50.00000000
v -4.90601969 -14.17501259 25.00000000
v -3.53638411 -14.57717323 50.00000000
v -3.53638411 -14.57717323 25.00000000
v -2.13472247 -14.84732151 50.00000000
v -2.13472247 -14.84732151 25.00000000
v -0.71372873 -14.98301029 50.00000000
v -0.71372873 -14.98301029 25.00000000
v 0.71372873 -14.98301029 50.00000000
v 0.71372873 -14.98301029 25.00000000
v 2.13472247 -14.84732151 50.00000000
v 2.13472247 -14.84732151 25.00000000
v 3.53638411 -14.57717323 50.00000000
v 3.53638411 -14.57717323 25.00000000
v 4.90601969 -14.17501259 50.00000000
v 4.90601969 -14.17501259 25.00000000
v 6.23122501 -13.64447975 50.00000000
v 6.23122501 -13.64447975 25.00000000
v 7.50000000 -12.99038124 50.00000000
v 7.50000000 -12.99038124 25.00000000
v 8.70085335 -12.21863937 50.00000000
v 8.70085335 -12.21863937 25.00000000
v 9.82291126 -11.33624363 50.00000000
v 9.82291126 -11.33624363 25.00000000
v 10.85601044 -10.35118484 50.00000000
v 10.85601044 -10.35118484 25.00000000
v 11.79079628 -9.27238464 50.00000000
v 11.79079628 -9.27238464 25.00000000
v 12.61880302 -8.10961246 50.00000000
v 12.61880302 -8.10961246 25.00000000
v 13.33253193 -6.87339783 50.00000000
v 13.33253193 -6.87339783 25.00000000
v 13.92551899 -5.57493687 50.00000000
v 13.92551899 -5.57493687 25.00000000
v 14.39239502 -4.22598839 50.00000000
v 14.39239502 -4.22598839 25.00000000
v 14.72893047 -2.83876872 50.00000000
v 14.72893047 -2.83876872 25.00000000
v 14.93207932 -1.42584062 50.00000000
v 14.93207932 -1.42584062 25.00000000
v 15.00000000 -0.00000000 50.00000000
v 15.00000000 -0.00000000 25.00000000
v 14.93207932 1.42584062 50.00000000
v 14.93207932 1.42584062 25.00000000
v 14.72893047 2.83876872 50.00000000
v 14.72893047 2.83876872 25.00000000
v 14.39239502 4.22598839 50.00000000
v 14.39239502 4.22598839 25.00000000
v 13.92551899 5.57493687 50.00000000
v 13.92551899 5.57493687 25.00000000
v 13.33253193 6.87339783 50.00000000
v 13.33253193 6.87339783 25.00000000
v 12.61880302 8.10961246 50.00000000
v 12.61880302 8.10961246 25.00000000
v 11.79079628 9.27238464 50.00000000
v 11.79079628 9.27238464 25.00000000
v 10.85601044 10.35118484 50.00000000
v 10.85601044 10.35118484 25.00000000
v 9.82291126 11.33624363 50.00000000
v 9.82291126 11.33624363 25.00000000
v 8.70085335 12.21863937 50.00000000
v 8.70085335 12.21863937 25.00000000
v 7.50000000 12.99038124 50.00000000
v 7.50000000 12.99038124 25.00000000
v 6.23122501 13.64447975 50.00000000
v 6.23122501 13.64447975 25.00000000
v 4.90601969 14.17501259 50.00000000
v 4.90601969 14.17501259 25.00000000
v 3.53638411 14.57717323 50.00000000
v 3.53638411 14.57717323 25.00000000
v 2.13472247 14.84732151 50.00000000
v 2.13472247 14.84732151 25.00000000
v 0.71372873 14.98301029 50.00000000
v 0.71372873 14.98301029 25.00000000
v -0.71372873 14.98301029 50.00000000
v -0.71372873 14.98301029 25.00000000
v -2.13472247 14.84732151 50.00000000
v -2.13472247 14.84732151 25.00000000
v -3.53638411 14.57717323 50.00000000
v -3.53638411 14.57717323 25.00000000
v -4.90601969 14.17501259 50.00000000
v -4.90601969 14.17501259 25.00000000
v -6.23122501 13.64447975 50.00000000
v -6.23122501 13.64447975 25.00000000
v -7.50000000 12.99038124 50.00000000
v -7.50000000 12.99038124 25.00000000
v -8.70085335 12.21863937 50.00000000
v -8.70085335 12.21863937 25.00000000
v -9.82291126 11.33624363 50.00000000
v -9.82291126 11.33624363 25.00000000
v -10.85601044 10.35118484 50.00000000
v -10.85601044 10.35118484 25.00000000
v -11.79079628 9.27238464 50.00000000
v -11.79079628 9.27238464 25.00000000
v -12.61880302 8.10961246 50.00000000
v -12.61880302 8.10961246 25.00000000
v -13.33253193 6.87339783 50.00000000
v -13.33253193 6.87339783 25.00000000
v -13.92551899 5.57493687 50.00000000
v -13.92551899 5.57493687 25.00000000
v -14.39239502 4.22598839 50.00000000
v -14.39239502 4.22598839 25.00000000
v -14.72893047 2.83876872 50.00000000
v -14.72893047 2.83876872 25.00000000
v -14.93207932 -1.42584062 -50.00000000
v -14.93207932 -1.42584062 -25.00000000
v -15.00000000 0.00000000 -50.00000000
v -15.00000000 -0.00000000 -25.00000000
v -14.93207932 1.42584062 -50.00000000
v -14.93207932 1.42584062 -25.00000000
v -14.72893047 2.83876872 -50.00000000
v -14.72893047 2.83876872 -25.00000000
v -14.39239502 4.22598839 -50.00000000
v -14.39239502 4.22598839 -25.00000000
v -13.92551899 5.57493687 -50.00000000
v -13.92551899 5.57493687 -25.00000000
v -13.33253193 6.87339783 -50.00000000
v -13.33253193 6.87339783 -25.00000000
v -12.61880302 8.10961246 -50.00000000
v -12.61880302 8.10961246 -25.00000000
v -11.79079628 9.27238464 -50.00000000
v -11.79079628 9.27238464 -25.00000000
v -10.85601044 10.35118484 -50.00000000
v -10.85601044 10.35118484 -25.00000000
v -9.82291126 11.33624363 -50.00000000
v -9.82291126 11.33624363 -25.00000000
v -8.70085335 12.21863937 -50.00000000
v -8.70085335 12.21863937 -25.00000000
v -7.50000000 12.99038124 -50.00000000
v -7.50000000 12.99038124 -25.00000000
v -6.23122501 13.64447975 -50.00000000
v -6.23122501 13.64447975 -25.00000000
v -4.90601969 14.17501259 -50.00000000
v -4.90601969 14.17501259 -25.00000000
v -3.53638411 14.57717323 -50.00000000
v -3.53638411 14.57717323 -25.00000000
v -2.13472247 14.84732151 -50.00000000
v -2.13472247 14.84732151 -25.00000000
v -0.71372873 14.98301029 -50.00000000
v -0.71372873 14.98301029 -25.00000000
v 0.71372873 14.98301029 -50.00000000
v 0.71372873 14.98301029 -25.00000000
v 2.13472247 14.84732151 -50.00000000
v 2.13472247 14.84732151 -25.00000000
v 3.53638411 14.57717323 -50.00000000
v 3.53638411 14.57717323 -25.00000000
v 4.90601969 14.17501259 -50.00000000
v 4.90601969 14.17501259 -25.00000000
v 6.23122501 13.64447975 -50.00000000
v 6.23122501 13.64447975 -25.00000000
v 7.50000000 12.99038124 -50.00000000
v 7.50000000 12.99038124 -25.00000000
v 8.70085335 12.21863937 -50.00000000
v 8.70085335 12.21863937 -25.00000000
v 9.82291126 11.33624363 -50.00000000
v 9.82291126 11.33624363 -25.00000000
v 10.85601044 10.35118484 -50.00000000
v 10.85601044 10.35118484 -25.00000000
v 11.79079628 9.27238464 -50.00000000
v 11.79079628 9.27238464 -25.00000000
v 12.61880302 8.10961246 -50.00000000
v 12.61880302 8.10961246 -25.00000000
v 13.33253193 6.87339783 -50.00000000
v 13.33253193 6.87339783 -25.00000000
v 13.92551899 5.57493687 -50.00000000
v 13.92551899 5.57493687 -25.00000000
v 14.39239502 4.22598839 -50.00000000
v 14.39239502 4.22598839 -25.00000000
v 14.72893047 2.83876872 -50.00000000
v 14.72893047 2.83876872 -25.00000000
v 14.93207932 1.42584062 -50.00000000
v 14.93207932 1.42584062 -25.00000000
v 15.00000000 0.00000000 -50.00000000
v 15.00000000 -0.00000000 -25.00000000
v 14.93207932 -1.42584062 -50.00000000
v 14.93207932 -1.42584062 -25.00000000
v 14.72893047 -2.83876872 -50.00000000
v 14.72893047 -2.83876872 -25.00000000
v 14.39239502 -4.22598839 -50.00000000
v 14.39239502 -4.22598839 -25.00000000
v 13.92551899 -5.57493687 -50.00000000
v 13.92551899 -5.57493687 -25.00000000
v 13.33253193 -6.87339783 -50.00000000
v 13.33253193 -6.87339783 -25.00000000
v 12.61880302 -8.10961246 -50.00000000
v 12.61880302 -8.10961246 -25.00000000
v 11.79079628 -9.27238464 -50.00000000
v 11.79079628 -9.27238464 -25.00000000
v 10.85601044 -10.35118484 -50.00000000
v 10.85601044 -10.35118484 -25.00000000
v 9.82291126 -11.33624363 -50.00000000
v 9.82291126 -11.33624363 -25.00000000
v 8.70085335 -12.21863937 -50.00000000
v 8.70085335 -12.21863937 -25.00000000
v 7.50000000 -12.99038124 -50.00000000
v 7.50000000 -12.99038124 -25.00000000
v 6.23122501 -13.64447975 -50.00000000
v 6.23122501 -13.64447975 -25.00000000
v 4.90601969 -14.17501259 -50.00000000
v 4.90601969 -14.17501259 -25.00000000
v 3.53638411 -14.57717323 -50.00000000
v 3.53638411 -14.57717323 -25.00000000
v 2.13472247 -14.84732151 -50.00000000
v 2.13472247 -14.84732151 -25.00000000
v 0.71372873 -14.98301029 -50.00000000
v 0.71372873 -14.98301029 -25.00000000
v -0.71372873 -14.98301029 -50.00000000
v -0.71372873 -14.98301029 -25.00000000
v -2.13472247 -14.84732151 -50.00000000
v -2.13472247 -14.84732151 -25.00000000
v -3.53638411 -14.57717323 -50.00000000
v -3.53638411 -14.57717323 -25.00000000
v -4.90601969 -14.17501259 -50.00000000
v -4.90601969 -14.17501259 -25.00000000
v -6.23122501 -13.64447975 -50.00000000
v -6.23122501 -13.64447975 -25.00000000
v -7.50000000 -12.99038124 -50.00000000
v -7.50000000 -12.99038124 -25.00000000
v -8.70085335 -12.21863937 -50.00000000
v -8.70085335 -12.21863937 -25.00000000
v -9.82291126 -11.33624363 -50.00000000
v -9.82291126 -11.33624363 -25.00000000
v -10.85601044 -10.35118484 -50.00000000
v -10.85601044 -10.35118484 -25.00000000
v -11.79079628 -9.27238464 -50.00000000
v -11.79079628 -9.27238464 -25.00000000
v -12.61880302 -8.10961246 -50.00000000
v -12.61880302 -8.10961246 -25.00000000
v -13.33253193 -6.87339783 -50.00000000
v -13.33253193 -6.87339783 -25.00000000
v -13.92551899 -5.57493687 -50.00000000
v -13.92551899 -5.57493687 -25.00000000
v -14.39239502 -4.22598839 -50.00000000
v -14.39239502 -4.22598839 -25.00000000
v -14.72893047 -2.83876872 -50.00000000
v -14.72893047 -2.83876872 -25.00000000
v -15.00000000 -0.00000000 -0.00000000
v -14.93207932 -1.42584062 -0.00000000
v -14.72893047 -2.83876872 -0.00000000
v -14.39239502 -4.22598839 -0.00000000
v -13.92551899 -5.57493687 -0.00000000
v -13.33253193 -6.87339783 -0.00000000
v -12.61880302 -8.10961246 -0.00000000
v -11.79079628 -9.27238464 -0.00000000
v -10.85601044 -10.35118484 -0.00000000
v -9.82291126 -11.33624363 -0.00000000
v -8.70085335 -12.21863937 -0.00000000
v -7.50000000 -12.99038124 -0.00000000
v -6.23122501 -13.64447975 -0.00000000
v -4.90601969 -14.17501259 -0.00000000
v -3.53638411 -14.57717323 -0.00000000
v -2.13472247 -14.84732151 -0.00000000
v -0.71372873 -14.98301029 -0.00000000
v 0.71372873 -14.98301029 -0.00000000
v 2.13472247 -14.84732151 -0.00000000
v 3.53638411 -14.57717323 -0.00000000
v 4.90601969 -14.17501259 -0.00000000
v 6.23122501 -13.64447975 -0.00000000
v 7.50000000 -12.99038124 -0.00000000
v 8.70085335 -12.21863937 -0.00000000
v 9.82291126 -11.33624363 -0.00000000
v 10.85601044 -10.35118484 -0.00000000
v 11.79079628 -9.27238464 -0.00000000
v 12.61880302 -8.10961246 -0.00000000
v 13.33253193 -6.87339783 -0.00000000
v 13.92551899 -5.57493687 -0.00000000
v 14.39239502 -4.22598839 -0.00000000
v 14.72893047 -2.83876872 -0.00000000
v 14.93207932 -1.42584062 -0.00000000
v 15.00000000 -0.00000000 -0.00000000
v 14.93207932 1.42584062 -0.00000000
v 14.72893047 2.83876872 -0.00000000
v 14.39239502 4.22598839 -0.00000000
v 13.92551899 5.57493687 -0.00000000
v 13.33253193 6.87339783 -0.00000000
v 12.61880302 8.10961246 -0.00000000
v 11.79079628 9.27238464 -0.00000000
v 10.85601044 10.35118484 -0.00000000
v 9.82291126 11.33624363 -0.00000000
v 8.70085335 12.21863937 -0.00000000
v 7.50000000 12.99038124 -0.00000000
v 6.23122501 13.64447975 -0.00000000
v 4.90601969 14.17501259 -0.00000000
v 3.53638411 14.57717323 -0.00000000
v 2.13472247 14.84732151 -0.00000000
v 0.71372873 14.98301029 -0.00000000
v -0.71372873 14.98301029 -0.00000000
v -2.13472247 14.84732151 -0.00000000
v -3.53638411 14.57717323 -0.00000000
v -4.90601969 14.17501259 -0.00000000
v -6.23122501 13.64447975 -0.00000000
v -7.50000000 12.99038124 -0.00000000
v -8.70085335 12.21863937 -0.00000000
v -9.82291126 11.33624363 -0.00000000
v -10.85601044 10.35118484 -0.00000000
v -11.79079628 9.27238464 -0.00000000
v -12.61880302 8.10961246 -0.00000000
v -13.33253193 6.87339783 -0.00000000
v -13.92551899 5.57493687 -0.00000000
v -14.39239502 4.22598839 -0.00000000
v -14.72893047 2.83876872 -0.00000000
v -14.93207932 1.42584062 -0.00000000
f 1 2 3
f 3 2 4
f 3 4 5
f 5 4 6
f 5 6 7
f 7 6 8
f 7 8 9
f 9 8 10
f 9 10 11
f 11 10 12
f 11 12 13
f 13 12 14
f 13 14 15
f 15 14 16
f 15 16 17
f 17 16 18
f 17 18 19
f 19 18 20
f 19 20 21
f 21 20 22
f 21 22 23
f 23 22 24
f 23 24 25
f 25 24 26
f 25 26 27
f 27 26 28
f 27 28 29
f 29 28 30
f 29 30 31
f 31 30 32
f 31 32 33
f 33 32 34
f 33 34 35
f 35 34 36
f 35 36 37
f 37 36 38
f 37 38 39
f 39 38 40
f 39 40 41
f 41 40 42
f 41 42 43
f 43 42 44
f 43 44 45
f 45 44 46
f 45 46 47
f 47 46 48
f 47 48 49
f 49 48 50
f 49 50 51
f 51 50 52
f 51 52 53
f 53 52 54
f 53 54 55
f 55 54 56
f 55 56 57
f 57 56 58
f 57 58 59
f 59 58 60
f 59 60 61
f 61 60 62
f 61 62 63
f 63 62 64
f 63 64 65
f 65 64 66
f 65 66 67
f 67 66 68
f 67 68 69
f 69 68 70
f 69 70 71
f 71 70 72
f 71 72 73
f 73 72 74
f 73 74 75
f 75 74 76
f 75 76 77
f 77 76 78
f 77 78 79
f 79 78 80
f 79 80 81
f 81 80 82
f 81 82 83
f 83 82 84
f 83 84 85
f 85 84 86
f 85 86 87
f 87 86 88
f 87 88 89
f 89 88 90
f 89 90 91
f 91 90 92
f 91 92 93
f 93 92 94
f 93 94 95
f 95 94 96
f 95 96 97
f 97 96 98
f 97 98 99
f 99 98 100
f 99 100 101
f 101 100 102
f 101 102 103
f 103 102 104
f 103 104 105
f 105 104 106
f 105 106 107
f 107 106 108
f 107 108 109
f 109 108 110
f 109 110 111
f 111 110 112
f 111 112 113
f 113 112 114
f 113 114 115
f 115 114 116
f 115 116 117
f 117 116 118
f 117 118 119
f 119 118 120
f 119 120 121
f 121 120 122
f 121 122 123
f 123 122 124
f 123 124 125
f 125 124 126
f 125 126 127
f 127 126 128
f 127 128 129
f 129 128 130
f 129 130 131
f 131 130 132
f 131 132 1
f 1 132 2
f 133 134 135
f 135 134 136
f 135 136 137
f 137 136 138
f 137 138 139
f 139 138 140
f 139 140 141
f 141 140 142
f 141 142 143
f 143 142 144
f 143 144 145
f 145 144 146
f 145 146 147
f 147 146 148
f 147 148 149
f 149 148 150
f 149 150 151
f 151 150 152
f 151 152 153
f 153 152 154
f 153 154 155
f 155 154 156
f 155 156 157
f 157 156 158
f 157 158 159
f 159 158 160
f 159 160 161
f 161 160 162
f 161 162 163
f 163 162 164
f 163 164 165
f 165 164 166
f 165 166 167
f 167 166 168
f 167 168 169
f 169 168 170
f 169 170 171
f 171 170 172
f 171 172 173
f 173 172 174
f 173 174 175
f 175 174 176
f 175 176 177
f 177 176 178
f 177 178 179
f 179 178 180
f 179 180 181
f 181 180 182
f 181 182 183
f 183 182 184
f 183 184 185
f 185 184 186
f 185 186 187
f 187 186 188
f 187 188 189
f 189 188 190
f 189 190 191
f 191 190 192
f 191 192 193
f 193 192 194
f 193 194 195
f 195 194 196
f 195 196 197
f 197 196 198
f 197 198 199
f 199 198 200
f 199 200 201
f 201 200 202
f 201 202 203
f 203 202 204
f 203 204 205
f 205 204 206
f 205 206 207
f 207 206 208
f 207 208 209
f 209 208 210
f 209 210 211
f 211 210 212
f 211 212 213
f 213 212 214
f 213 214 215
f 215 214 216
f 215 216 217
f 217 216 218
f 217 218 219
f 219 218 220
f 219 220 221
f 221 220 222
f 221 222 223
f 223 222 224
f 223 224 225
f 225 224 226
f 225 226 227
f 227 226 228
f 227 228 229
f 229 228 230
f 229 230 231
f 231 230 232
f 231 232 233
f 233 232 234
f 233 234 235
f 235 234 236
f 235 236 237
f 237 236 238
f 237 238 239
f 239 238 240
f 239 240 241
f 241 240 242
f 241 242 243
f 243 242 244
f 243 244 245
f 245 244 246
f 245 246 247
f 247 246 248
f 247 248 249
f 249 248 250
f 249 250 251
f 251 250 252
f 251 252 253
f 253 252 254
f 253 254 255
f 255 254 256
f 255 256 257
f 257 256 258
f 257 258 259
f 259 258 260
f 259 260 261
f 261 260 262
f 261 262 263
f 263 262 264
f 263 264 133
f 133 264 134
f 4 265 6
f 6 265 266
f 6 266 8
f 8 266 267
f 8 267 10
f 10 267 268
f 10 268 12
f 12 268 269
f 12 269 14
f 14 269 270
f 14 270 16
f 16 270 271
f 16 271 18
f 18 271 272
f 18 272 20
f 20 272 273
f 20 273 22
f 22 273 274
f 22 274 24
f 24 274 275
f 24 275 26
f 26 275 276
f 26 276 28
f 28 276 277
f 28 277 30
f 30 277 278
f 30 278 32
f 32 278 279
f 32 279 34
f 34 279 280
f 34 280 36
f 36 280 281
f 36 281 38
f 38 281 282
f 38 282 40
f 40 282 283
f 40 283 42
f 42 283 284
f 42 284 44
f 44 284 285
f 44 285 46
f 46 285 286
f 46 286 48
f 48 286 287
f 48 287 50
f 50 287 288
f 50 288 52
f 52 288 289
f 52 289 54
f 54 289 290
f 54 290 56
f 56 290 291
f 56 291 58
f 58 291 292
f 58 292 60
f 60 292 293
f 60 293 62
f 62 293 294
f 62 294 64
f 64 294 295
f 64 295 66
f 66 295 296
f 66 296 68
f 68 296 297
f 68 297 70
f 70 297 298
f 70 298 72
f 72 298 299
f 72 299 74
f 74 299 300
f 74 300 76
f 76 300 301
f 76 301 78
f 78 301 302
f 78 302 80
f 80 302 303
f 80 303 82
f 82 303 304
f 82 304 84
f 84 304 305
f 84 305 86
f 86 305 306
f 86 306 88
f 88 306 307
f 88 307 90
f 90 307 308
f 90 308 92
f 92 308 309
f 92 309 94
f 94 309 310
f 94 310 96
f 96 310 311
f 96 311 98
f 98 311 312
f 98 312 100
f 100 312 313
f 100 313 102
f 102 313 314
f 102 314 104
f 104 314 315
f 104 315 106
f 106 315 316
f 106 316 108
f 108 316 317
f 108 317 110
f 110 317 318
f 110 318 112
f 112 318 319
f 112 319 114
f 114 319 320
f 114 320 116
f 116 320 321
f 116 321 118
f 118 321 322
f 118 322 120
f 120 322 323
f 120 323 122
f 122 323 324
f 122 324 124
f 124 324 325
f 124 325 126
f 126 325 326
f 126 326 128
f 128 326 327
f 128 327 130
f 130 327 328
f 130 328 132
f 132 328 329
f 132 329 2
f 2 329 330
f 2 330 4
f 4 330 265
f 265 136 266
f 266 136 134
f 266 134 267
f 267 134 264
f 267 264 268
f 268 264 262
f 268 262 269
f 269 262 260
f 269 260 270
f 270 260 258
f 270 258 271
f 271 258 256
f 271 256 272
f 272 256 254
f 272 254 273
f 273 254 252
f 273 252 274
f 274 252 250
f 274 250 275
f 275 250 248
f 275 248 276
f 276 248 246
f 276 246 277
f 277 246 244
f 277 244 278
f 278 244 242
f 278 242 279
f 279 242 240
f 279 240 280
f 280 240 238
f 280 238 281
f 281 238 236
f 281 236 282
f 282 236 234
f 282 234 283
f 283 234 232
f 283 232 284
f 284 232 230
f 284 230 285
f 285 230 228
f 285 228 286
f 286 228 226
f 286 226 287
f 287 226 224
f 287 224 288
f 288 224 222
f 288 222 289
f 289 222 220
f 289 220 290
f 290 220 218
f 290 218 291
f 291 218 216
f 291 216 292
f 292 216 214
f 292 214 293
f 293 214 212
f 293 212 294
f 294 212 210
f 294 210 295
f 295 210 208
f 295 208 296
f 296 208 206
f 296 206 297
f 297 206 204
f 297 204 298
f 298 204 202
f 298 202 299
f 299 202 200
f 299 200 300
f 300 200 198
f 300 198 301
f 301 198 196
f 301 196 302
f 302 196 194
f 302 194 303
f 303 194 192
f 303 192 304
f 304 192 190
f 304 190 305
f 305 190 188
f 305 188 306
f 306 188 186
f 306 186 307
f 307 186 184
f 307 184 308
f 308 184 182
f 308 182 309
f 309 182 180
f 309 180 310
f 310 180 178
f 310 178 311
f 311 178 176
f 311 176 312
f 312 176 174
f 312 174 313
f 313 174 172
f 313 172 314
f 314 172 170
f 314 170 315
f 315 170 168
f 315 168 316
f 316 168 166
f 316 166 317
f 317 166 164
f 317 164 318
f 318 164 162
f 318 162 319
f 319 162 160
f 319 160 320
f 320 160 158
f 320 158 321
f 321 158 156
f 321 156 322
f 322 156 154
f 322 154 323
f 323 154 152
f 323 152 324
f 324 152 150
f 324 150 325
f 325 150 148
f 325 148 326
f 326 148 146
f 326 146 327
f 327 146 144
f 327 144 328
f 328 144 142
f 328 142 329
f 329 142 140
f 329 140 330
f 330 140 138
f 330 138 265
f 265 138 136
f 5 67 3
f 3 67 69
f 3 69 1
f 1 69 71
f 1 71 131
f 131 71 73
f 131 73 129
f 129 73 75
f 129 75 127
f 127 75 77
f 127 77 125
f 125 77 79
f 125 79 123
f 123 79 81
f 123 81 121
f 121 81 83
f 121 83 119
f 119 83 85
f 119 85 117
f 117 85 87
f 117 87 115
f 115 87 89
f 115 89 113
f 113 89 91
f 113 91 111
f 111 91 93
f 111 93 109
f 109 93 95
f 109 95 107
f 107 95 97
f 107 97 105
f 105 97 99
f 105 99 103
f 103 99 101
f 67 5 65
f 65 5 7
f 65 7 63
f 63 7 9
f 63 9 61
f 61 9 11
f 61 11 59
f 59 11 13
f 59 13 57
f 57 13 15
f 57 15 55
f 55 15 17
f 55 17 53
f 53 17 19
f 53 19 51
f 51 19 21
f 51 21 49
f 49 21 23
f 49 23 47
f 47 23 25
f 47 25 45
f 45 25 27
f 45 27 43
f 43 27 29
f 43 29 41
f 41 29 31
f 41 31 39
f 39 31 33
f 39 33 37
f 37 33 35
f 137 199 135
f 135 199 201
f 135 201 133
f 133 201 203
f 133 203 263
f 263 203 205
f 263 205 261
f 261 205 207
f 261 207 259
f 259 207 209
f 259 209 257
f 257 209 211
f 257 211 255
f 255 211 213
f 255 213 253
f 253 213 215
f 253 215 251
f 251 215 217
f 251 217 249
f 249 217 219
f 249 219 247
f 247 219 221
f 247 221 245
f 245 221 223
f 245 223 243
f 243 223 225
f 243 225 241
f 241 225 227
f 241 227 239
f 239 227 229
f 239 229 237
f 237 229 231
f 237 231 235
f 235 231 233
f 199 137 197
f 197 137 139
f 197 139 195
f 195 139 141
f 195 141 193
f 193 141 143
f 193 143 191
f 191 143 145
f 191 145 189
f 189 145 147
f 189 147 187
f 187 147 149
f 187 149 185
f 185 149 151
f 185 151 183
f 183 151 153
f 183 153 181
f 181 153 155
f 181 155 179
f 179 155 157
f 179 157 177
f 177 157 159
f 177 159 175
f 175 159 161
f 175 161 173
f 173 161 163
f 173 163 171
f 171 163 165
f 171 165 169
f 169 165 167

