# https://github.com/mikedh/trimesh
v -0.03485826 -0.00281634 -0.07500000
v -0.03485826 -0.00281634 -0.02500000
v -0.03497166 0.00000000 -0.07500000
v -0.03497166 0.00000000 -0.02500000
v -0.03485826 0.00281634 -0.07500000
v -0.03485826 0.00281634 -0.02500000
v -0.03451879 0.00561440 -0.07500000
v -0.03451879 0.00561440 -0.02500000
v -0.03395544 0.00837606 -0.07500000
v -0.03395544 0.00837606 -0.02500000
v -0.03317189 0.01108340 -0.07500000
v -0.03317189 0.01108340 -0.02500000
v -0.03217321 0.01371885 -0.07500000
v -0.03217321 0.01371885 -0.02500000
v -0.03096587 0.01626533 -0.07500000
v -0.03096587 0.01626533 -0.02500000
v -0.02955770 0.01870633 -0.07500000
v -0.02955770 0.01870633 -0.02500000
v -0.02795785 0.02102601 -0.07500000
v -0.02795785 0.02102601 -0.02500000
v -0.02617666 0.02320932 -0.07500000
v -0.02617666 0.02320932 -0.02500000
v -0.02422572 0.02524212 -0.07500000
v -0.02422572 0.02524212 -0.02500000
v -0.02211767 0.02711121 -0.07500000
v -0.02211767 0.02711121 -0.02500000
v -0.01986617 0.02880447 -0.07500000
v -0.01986617 0.02880447 -0.02500000
v -0.01748583 0.03031093 -0.07500000
v -0.01748583 0.03031093 -0.02500000
v -0.01499209 0.03162081 -0.07500000
v -0.01499209 0.03162081 -0.02500000
v -0.01240112 0.03272561 -0.07500000
v -0.01240112 0.03272561 -0.02500000
v -0.00972973 0.03361818 -0.07500000
v -0.00972973 0.03361818 -0.02500000
v -0.00699523 0.03429271 -0.07500000
v -0.00699523 0.03429271 -0.02500000
v -0.00421536 0.03474486 -0.07500000
v -0.00421536 0.03474486 -0.02500000
v -0.00140817 0.03497166 -0.07500000
v -0.00140817 0.03497166 -0.02500000
v 0.00140817 0.03497166 -0.07500000
v 0.00140817 0.03497166 -0.02500000
v 0.00421536 0.03474486 -0.07500000
v 0.00421536 0.03474486 -0.02500000
v 0.00699523 0.03429271 -0.07500000
v 0.00699523 0.03429271 -0.02500000
v 0.00972973 0.03361818 -0.07500000
v 0.00972973 0.03361818 -0.02500000
v 0.01240112 0.03272561 -0.07500000
v 0.01240112 0.03272561 -0.02500000
v 0.01499209 0.03162081 -0.07500000
v 0.01499209 0.03162081 -0.02500000
v 0.01748583 0.03031093 -0.07500000
v 0.01748583 0.03031093 -0.02500000
v 0.01986617 0.02880447 -0.07500000
v 0.01986617 0.02880447 -0.02500000
v 0.02211767 0.02711121 -0.07500000
v 0.02211767 0.02711121 -0.02500000
v 0.02422572 0.02524212 -0.07500000
v 0.02422572 0.02524212 -0.02500000
v 0.02617666 0.02320932 -0.07500000
v 0.02617666 0.02320932 -0.02500000
v 0.02795785 0.02102601 -0.07500000
v 0.02795785 0.02102601 -0.02500000
v 0.02955770 0.01870633 -0.07500000
v 0.02955770 0.01870633 -0.02500000
v 0.03096587 0.01626533 -0.07500000
v 0.03096587 0.01626533 -0.02500000
v 0.03217321 0.01371885 -0.07500000
v 0.03217321 0.01371885 -0.02500000
v 0.03317189 0.01108340 -0.07500000
v 0.03317189 0.01108340 -0.02500000
v 0.03395544 0.00837606 -0.07500000
v 0.03395544 0.00837606 -0.02500000
v 0.03451879 0.00561440 -0.07500000
v 0.03451879 0.00561440 -0.02500000
v 0.03485826 0.00281634 -0.07500000
v 0.03485826 0.00281634 -0.02500000
v 0.03497166 0.00000000 -0.07500000
v 0.03497166 0.00000000 -0.02500000
v 0.03485826 -0.00281634 -0.07500000
v 0.03485826 -0.00281634 -0.02500000
v 0.03451879 -0.00561440 -0.07500000
v 0.03451879 -0.00561440 -0.02500000
v 0.03395544 -0.00837606 -0.07500000
v 0.03395544 -0.00837606 -0.02500000
v 0.03317189 -0.01108340 -0.07500000
v 0.03317189 -0.01108340 -0.02500000
v 0.03217321 -0.01371885 -0.07500000
v 0.03217321 -0.01371885 -0.02500000
v 0.03096587 -0.01626533 -0.07500000
v 0.03096587 -0.01626533 -0.02500000
v 0.02955770 -0.01870633 -0.07500000
v 0.02955770 -0.01870633 -0.02500000
v 0.02795785 -0.02102601 -0.07500000
v 0.02795785 -0.02102601 -0.02500000
v 0.02617666 -0.02320932 -0.07500000
v 0.02617666 -0.02320932 -0.02500000
v 0.02422572 -0.02524212 -0.07500000
v 0.02422572 -0.02524212 -0.02500000
v 0.02211767 -0.02711121 -0.07500000
v 0.02211767 -0.02711121 -0.02500000
v 0.01986617 -0.02880447 -0.07500000
v 0.01986617 -0.02880447 -0.02500000
v 0.01748583 -0.03031093 -0.07500000
v 0.01748583 -0.03031093 -0.02500000
v 0.01499209 -0.03162081 -0.07500000
v 0.01499209 -0.03162081 -0.02500000
v 0.01240112 -0.03272561 -0.07500000
v 0.01240112 -0.03272561 -0.02500000
v 0.00972973 -0.03361818 -0.07500000
v 0.00972973 -0.03361818 -0.02500000
v 0.00699523 -0.03429271 -0.07500000
v 0.00699523 -0.03429271 -0.02500000
v 0.00421536 -0.03474486 -0.07500000
v 0.00421536 -0.03474486 -0.02500000
v 0.00140817 -0.03497166 -0.07500000
v 0.00140817 -0.03497166 -0.02500000
v -0.00140817 -0.03497166 -0.07500000
v -0.00140817 -0.03497166 -0.02500000
v -0.00421536 -0.03474486 -0.07500000
v -0.00421536 -0.03474486 -0.02500000
v -0.00699523 -0.03429271 -0.07500000
v -0.00699523 -0.03429271 -0.02500000
v -0.00972973 -0.03361818 -0.07500000
v -0.00972973 -0.03361818 -0.02500000
v -0.01240112 -0.03272561 -0.07500000
v -0.01240112 -0.03272561 -0.02500000
v -0.01499209 -0.03162081 -0.07500000
v -0.01499209 -0.03162081 -0.02500000
v -0.01748583 -0.03031093 -0.07500000
v -0.01748583 -0.03031093 -0.02500000
v -0.01986617 -0.02880447 -0.07500000
v -0.01986617 -0.02880447 -0.02500000
v -0.02211767 -0.02711121 -0.07500000
v -0.02211767 -0.02711121 -0.02500000
v -0.02422572 -0.02524212 -0.07500000
v -0.02422572 -0.02524212 -0.02500000
v -0.02617666 -0.02320932 -0.07500000
v -0.02617666 -0.02320932 -0.02500000
v -0.02795785 -0.02102601 -0.07500000
v -0.02795785 -0.02102601 -0.02500000
v -0.02955770 -0.01870633 -0.07500000
v -0.02955770 -0.01870633 -0.02500000
v -0.03096587 -0.01626533 -0.07500000
v -0.03096587 -0.01626533 -0.02500000
v -0.03217321 -0.01371885 -0.07500000
v -0.03217321 -0.01371885 -0.02500000
v -0.03317189 -0.01108340 -0.07500000
v -0.03317189 -0.01108340 -0.02500000
v -0.03395544 -0.00837606 -0.07500000
v -0.03395544 -0.00837606 -0.02500000
v -0.03451879 -0.00561440 -0.07500000
v -0.03451879 -0.00561440 -0.02500000
v -0.03485826 0.00281634 0.07500000
v -0.03485826 0.00281634 0.02500000
v -0.03497166 0.00000000 0.07500000
v -0.03497166 0.00000000 0.02500000
v -0.03485826 -0.00281634 0.07500000
v -0.03485826 -0.00281634 0.02500000
v -0.03451879 -0.00561440 0.07500000
v -0.03451879 -0.00561440 0.02500000
v -0.03395544 -0.00837606 0.07500000
v -0.03395544 -0.00837606 0.02500000
v -0.03317189 -0.01108340 0.07500000
v -0.03317189 -0.01108340 0.02500000
v -0.03217321 -0.01371885 0.07500000
v -0.03217321 -0.01371885 0.02500000
v -0.03096587 -0.01626533 0.07500000
v -0.03096587 -0.01626533 0.02500000
v -0.02955770 -0.01870633 0.07500000
v -0.02955770 -0.01870633 0.02500000
v -0.02795785 -0.02102601 0.07500000
v -0.02795785 -0.02102601 0.02500000
v -0.02617666 -0.02320932 0.07500000
v -0.02617666 -0.02320932 0.02500000
v -0.02422572 -0.02524212 0.07500000
v -0.02422572 -0.02524212 0.02500000
v -0.02211767 -0.02711121 0.07500000
v -0.02211767 -0.02711121 0.02500000
v -0.01986617 -0.02880447 0.07500000
v -0.01986617 -0.02880447 0.02500000
v -0.01748583 -0.03031093 0.07500000
v -0.01748583 -0.03031093 0.02500000
v -0.01499209 -0.03162081 0.07500000
v -0.01499209 -0.03162081 0.02500000
v -0.01240112 -0.03272561 0.07500000
v -0.01240112 -0.03272561 0.02500000
v -0.00972973 -0.03361818 0.07500000
v -0.00972973 -0.03361818 0.02500000
v -0.00699523 -0.03429271 0.07500000
v -0.00699523 -0.03429271 0.02500000
v -0.00421536 -0.03474486 0.07500000
v -0.00421536 -0.03474486 0.02500000
v -0.00140817 -0.03497166 0.07500000
v -0.00140817 -0.03497166 0.02500000
v 0.00140817 -0.03497166 0.07500000
v 0.00140817 -0.03497166 0.02500000
v 0.00421536 -0.03474486 0.07500000
v 0.00421536 -0.03474486 0.02500000
v 0.00699523 -0.03429271 0.07500000
v 0.00699523 -0.03429271 0.02500000
v 0.00972973 -0.03361818 0.07500000
v 0.00972973 -0.03361818 0.02500000
v 0.01240112 -0.03272561 0.07500000
v 0.01240112 -0.03272561 0.02500000
v 0.01499209 -0.03162081 0.07500000
v 0.01499209 -0.03162081 0.02500000
v 0.01748583 -0.03031093 0.07500000
v 0.01748583 -0.03031093 0.02500000
v 0.01986617 -0.02880447 0.07500000
v 0.01986617 -0.02880447 0.02500000
v 0.02211767 -0.02711121 0.07500000
v 0.02211767 -0.02711121 0.02500000
v 0.02422572 -0.02524212 0.07500000
v 0.02422572 -0.02524212 0.02500000
v 0.02617666 -0.02320932 0.07500000
v 0.02617666 -0.02320932 0.02500000
v 0.02795785 -0.02102601 0.07500000
v 0.02795785 -0.02102601 0.02500000
v 0.02955770 -0.01870633 0.07500000
v 0.02955770 -0.01870633 0.02500000
v 0.03096587 -0.01626533 0.07500000
v 0.03096587 -0.01626533 0.02500000
v 0.03217321 -0.01371885 0.07500000
v 0.03217321 -0.01371885 0.02500000
v 0.03317189 -0.01108340 0.07500000
v 0.03317189 -0.01108340 0.02500000
v 0.03395544 -0.00837606 0.07500000
v 0.03395544 -0.00837606 0.02500000
v 0.03451879 -0.00561440 0.07500000
v 0.03451879 -0.00561440 0.02500000
v 0.03485826 -0.00281634 0.07500000
v 0.03485826 -0.00281634 0.02500000
v 0.03497166 0.00000000 0.07500000
v 0.03497166 0.00000000 0.02500000
v 0.03485826 0.00281634 0.07500000
v 0.03485826 0.00281634 0.02500000
v 0.03451879 0.00561440 0.07500000
v 0.03451879 0.00561440 0.02500000
v 0.03395544 0.00837606 0.07500000
v 0.03395544 0.00837606 0.02500000
v 0.03317189 0.01108340 0.07500000
v 0.03317189 0.01108340 0.02500000
v 0.03217321 0.01371885 0.07500000
v 0.03217321 0.01371885 0.02500000
v 0.03096587 0.01626533 0.07500000
v 0.03096587 0.01626533 0.02500000
v 0.02955770 0.01870633 0.07500000
v 0.02955770 0.01870633 0.02500000
v 0.02795785 0.02102601 0.07500000
v 0.02795785 0.02102601 0.02500000
v 0.02617666 0.02320932 0.07500000
v 0.02617666 0.02320932 0.02500000
v 0.02422572 0.02524212 0.07500000
v 0.02422572 0.02524212 0.02500000
v 0.02211767 0.02711121 0.07500000
v 0.02211767 0.02711121 0.02500000
v 0.01986617 0.02880447 0.07500000
v 0.01986617 0.02880447 0.02500000
v 0.01748583 0.03031093 0.07500000
v 0.01748583 0.03031093 0.02500000
v 0.01499209 0.03162081 0.07500000
v 0.01499209 0.03162081 0.02500000
v 0.01240112 0.03272561 0.07500000
v 0.01240112 0.03272561 0.02500000
v 0.00972973 0.03361818 0.07500000
v 0.00972973 0.03361818 0.02500000
v 0.00699523 0.03429271 0.07500000
v 0.00699523 0.03429271 0.02500000
v 0.00421536 0.03474486 0.07500000
v 0.00421536 0.03474486 0.02500000
v 0.00140817 0.03497166 0.07500000
v 0.00140817 0.03497166 0.02500000
v -0.00140817 0.03497166 0.07500000
v -0.00140817 0.03497166 0.02500000
v -0.00421536 0.03474486 0.07500000
v -0.00421536 0.03474486 0.02500000
v -0.00699523 0.03429271 0.07500000
v -0.00699523 0.03429271 0.02500000
v -0.00972973 0.03361818 0.07500000
v -0.00972973 0.03361818 0.02500000
v -0.01240112 0.03272561 0.07500000
v -0.01240112 0.03272561 0.02500000
v -0.01499209 0.03162081 0.07500000
v -0.01499209 0.03162081 0.02500000
v -0.01748583 0.03031093 0.07500000
v -0.01748583 0.03031093 0.02500000
v -0.01986617 0.02880447 0.07500000
v -0.01986617 0.02880447 0.02500000
v -0.02211767 0.02711121 0.07500000
v -0.02211767 0.02711121 0.02500000
v -0.02422572 0.02524212 0.07500000
v -0.02422572 0.02524212 0.02500000
v -0.02617666 0.02320932 0.07500000
v -0.02617666 0.02320932 0.02500000
v -0.02795785 0.02102601 0.07500000
v -0.02795785 0.02102601 0.02500000
v -0.02955770 0.01870633 0.07500000
v -0.02955770 0.01870633 0.02500000
v -0.03096587 0.01626533 0.07500000
v -0.03096587 0.01626533 0.02500000
v -0.03217321 0.01371885 0.07500000
v -0.03217321 0.01371885 0.02500000
v -0.03317189 0.01108340 0.07500000
v -0.03317189 0.01108340 0.02500000
v -0.03395544 0.00837606 0.07500000
v -0.03395544 0.00837606 0.02500000
v -0.03451879 0.00561440 0.07500000
v -0.03451879 0.00561440 0.02500000
f 1 2 3
f 3 2 4
f 3 4 5
f 5 4 6
f 5 6 7
f 7 6 8
f 7 8 9
f 9 8 10
f 9 10 11
f 11 10 12
f 11 12 13
f 13 12 14
f 13 14 15
f 15 14 16
f 15 16 17
f 17 16 18
f 17 18 19
f 19 18 20
f 19 20 21
f 21 20 22
f 21 22 23
f 23 22 24
f 23 24 25
f 25 24 26
f 25 26 27
f 27 26 28
f 27 28 29
f 29 28 30
f 29 30 31
f 31 30 32
f 31 32 33
f 33 32 34
f 33 34 35
f 35 34 36
f 35 36 37
f 37 36 38
f 37 38 39
f 39 38 40
f 39 40 41
f 41 40 42
f 41 42 43
f 43 42 44
f 43 44 45
f 45 44 46
f 45 46 47
f 47 46 48
f 47 48 49
f 49 48 50
f 49 50 51
f 51 50 52
f 51 52 53
f 53 52 54
f 53 54 55
f 55 54 56
f 55 56 57
f 57 56 58
f 57 58 59
f 59 58 60
f 59 60 61
f 61 60 62
f 61 62 63
f 63 62 64
f 63 64 65
f 65 64 66
f 65 66 67
f 67 66 68
f 67 68 69
f 69 68 70
f 69 70 71
f 71 70 72
f 71 72 73
f 73 72 74
f 73 74 75
f 75 74 76
f 75 76 77
f 77 76 78
f 77 78 79
f 79 78 80
f 79 80 81
f 81 80 82
f 81 82 83
f 83 82 84
f 83 84 85
f 85 84 86
f 85 86 87
f 87 86 88
f 87 88 89
f 89 88 90
f 89 90 91
f 91 90 92
f 91 92 93
f 93 92 94
f 93 94 95
f 95 94 96
f 95 96 97
f 97 96 98
f 97 98 99
f 99 98 100
f 99 100 101
f 101 100 102
f 101 102 103
f 103 102 104
f 103 104 105
f 105 104 106
f 105 106 107
f 107 106 108
f 107 108 109
f 109 108 110
f 109 110 111
f 111 110 112
f 111 112 113
f 113 112 114
f 113 114 115
f 115 114 116
f 115 116 117
f 117 116 118
f 117 118 119
f 119 118 120
f 119 120 121
f 121 120 122
f 121 122 123
f 123 122 124
f 123 124 125
f 125 124 126
f 125 126 127
f 127 126 128
f 127 128 129
f 129 128 130
f 129 130 131
f 131 130 132
f 131 132 133
f 133 132 134
f 133 134 135
f 135 134 136
f 135 136 137
f 137 136 138
f 137 138 139
f 139 138 140
f 139 140 141
f 141 140 142
f 141 142 143
f 143 142 144
f 143 144 145
f 145 144 146
f 145 146 147
f 147 146 148
f 147 148 149
f 149 148 150
f 149 150 151
f 151 150 152
f 151 152 153
f 153 152 154
f 153 154 155
f 155 154 156
f 155 156 1
f 1 156 2
f 157 158 159
f 159 158 160
f 159 160 161
f 161 160 162
f 161 162 163
f 163 162 164
f 163 164 165
f 165 164 166
f 165 166 167
f 167 166 168
f 167 168 169
f 169 168 170
f 169 170 171
f 171 170 172
f 171 172 173
f 173 172 174
f 173 174 175
f 175 174 176
f 175 176 177
f 177 176 178
f 177 178 179
f 179 178 180
f 179 180 181
f 181 180 182
f 181 182 183
f 183 182 184
f 183 184 185
f 185 184 186
f 185 186 187
f 187 186 188
f 187 188 189
f 189 188 190
f 189 190 191
f 191 190 192
f 191 192 193
f 193 192 194
f 193 194 195
f 195 194 196
f 195 196 197
f 197 196 198
f 197 198 199
f 199 198 200
f 199 200 201
f 201 200 202
f 201 202 203
f 203 202 204
f 203 204 205
f 205 204 206
f 205 206 207
f 207 206 208
f 207 208 209
f 209 208 210
f 209 210 211
f 211 210 212
f 211 212 213
f 213 212 214
f 213 214 215
f 215 214 216
f 215 216 217
f 217 216 218
f 217 218 219
f 219 218 220
f 219 220 221
f 221 220 222
f 221 222 223
f 223 222 224
f 223 224 225
f 225 224 226
f 225 226 227
f 227 226 228
f 227 228 229
f 229 228 230
f 229 230 231
f 231 230 232
f 231 232 233
f 233 232 234
f 233 234 235
f 235 234 236
f 235 236 237
f 237 236 238
f 237 238 239
f 239 238 240
f 239 240 241
f 241 240 242
f 241 242 243
f 243 242 244
f 243 244 245
f 245 244 246
f 245 246 247
f 247 246 248
f 247 248 249
f 249 248 250
f 249 250 251
f 251 250 252
f 251 252 253
f 253 252 254
f 253 254 255
f 255 254 256
f 255 256 257
f 257 256 258
f 257 258 259
f 259 258 260
f 259 260 261
f 261 260 262
f 261 262 263
f 263 262 264
f 263 264 265
f 265 264 266
f 265 266 267
f 267 266 268
f 267 268 269
f 269 268 270
f 269 270 271
f 271 270 272
f 271 272 273
f 273 272 274
f 273 274 275
f 275 274 276
f 275 276 277
f 277 276 278
f 277 278 279
f 279 278 280
f 279 280 281
f 281 280 282
f 281 282 283
f 283 282 284
f 283 284 285
f 285 284 286
f 285 286 287
f 287 286 288
f 287 288 289
f 289 288 290
f 289 290 291
f 291 290 292
f 291 292 293
f 293 292 294
f 293 294 295
f 295 294 296
f 295 296 297
f 297 296 298
f 297 298 299
f 299 298 300
f 299 300 301
f 301 300 302
f 301 302 303
f 303 302 304
f 303 304 305
f 305 304 306
f 305 306 307
f 307 306 308
f 307 308 309
f 309 308 310
f 309 310 311
f 311 310 312
f 311 312 157
f 157 312 158
f 4 160 6
f 6 160 158
f 6 158 8
f 8 158 312
f 8 312 10
f 10 312 310
f 10 310 12
f 12 310 308
f 12 308 14
f 14 308 306
f 14 306 16
f 16 306 304
f 16 304 18
f 18 304 302
f 18 302 20
f 20 302 300
f 20 300 22
f 22 300 298
f 22 298 24
f 24 298 296
f 24 296 26
f 26 296 294
f 26 294 28
f 28 294 292
f 28 292 30
f 30 292 290
f 30 290 32
f 32 290 288
f 32 288 34
f 34 288 286
f 34 286 36
f 36 286 284
f 36 284 38
f 38 284 282
f 38 282 40
f 40 282 280
f 40 280 42
f 42 280 278
f 42 278 44
f 44 278 276
f 44 276 46
f 46 276 274
f 46 274 48
f 48 274 272
f 48 272 50
f 50 272 270
f 50 270 52
f 52 270 268
f 52 268 54
f 54 268 266
f 54 266 56
f 56 266 264
f 56 264 58
f 58 264 262
f 58 262 60
f 60 262 260
f 60 260 62
f 62 260 258
f 62 258 64
f 64 258 256
f 64 256 66
f 66 256 254
f 66 254 68
f 68 254 252
f 68 252 70
f 70 252 250
f 70 250 72
f 72 250 248
f 72 248 74
f 74 248 246
f 74 246 76
f 76 246 244
f 76 244 78
f 78 244 242
f 78 242 80
f 80 242 240
f 80 240 82
f 82 240 238
f 82 238 84
f 84 238 236
f 84 236 86
f 86 236 234
f 86 234 88
f 88 234 232
f 88 232 90
f 90 232 230
f 90 230 92
f 92 230 228
f 92 228 94
f 94 228 226
f 94 226 96
f 96 226 224
f 96 224 98
f 98 224 222
f 98 222 100
f 100 222 220
f 100 220 102
f 102 220 218
f 102 218 104
f 104 218 216
f 104 216 106
f 106 216 214
f 106 214 108
f 108 214 212
f 108 212 110
f 110 212 210
f 110 210 112
f 112 210 208
f 112 208 114
f 114 208 206
f 114 206 116
f 116 206 204
f 116 204 118
f 118 204 202
f 118 202 120
f 120 202 200
f 120 200 122
f 122 200 198
f 122 198 124
f 124 198 196
f 124 196 126
f 126 196 194
f 126 194 128
f 128 194 192
f 128 192 130
f 130 192 190
f 130 190 132
f 132 190 188
f 132 188 134
f 134 188 186
f 134 186 136
f 136 186 184
f 136 184 138
f 138 184 182
f 138 182 140
f 140 182 180
f 140 180 142
f 142 180 178
f 142 178 144
f 144 178 176
f 144 176 146
f 146 176 174
f 146 174 148
f 148 174 172
f 148 172 150
f 150 172 170
f 150 170 152
f 152 170 168
f 152 168 154
f 154 168 166
f 154 166 156
f 156 166 164
f 156 164 2
f 2 164 162
f 2 162 4
f 4 162 160
f 5 79 3
f 3 79 81
f 3 81 1
f 1 81 83
f 1 83 155
f 155 83 85
f 155 85 153
f 153 85 87
f 153 87 151
f 151 87 89
f 151 89 149
f 149 89 91
f 149 91 147
f 147 91 93
f 147 93 145
f 145 93 95
f 145 95 143
f 143 95 97
f 143 97 141
f 141 97 99
f 141 99 139
f 139 99 101
f 139 101 137
f 137 101 103
f 137 103 135
f 135 103 105
f 135 105 133
f 133 105 107
f 133 107 131
f 131 107 109
f 131 109 129
f 129 109 111
f 129 111 127
f 127 111 113
f 127 113 125
f 125 113 115
f 125 115 123
f 123 115 117
f 123 117 121
f 121 117 119
f 79 5 77
f 77 5 7
f 77 7 75
f 75 7 9
f 75 9 73
f 73 9 11
f 73 11 71
f 71 11 13
f 71 13 69
f 69 13 15
f 69 15 67
f 67 15 17
f 67 17 65
f 65 17 19
f 65 19 63
f 63 19 21
f 63 21 61
f 61 21 23
f 61 23 59
f 59 23 25
f 59 25 57
f 57 25 27
f 57 27 55
f 55 27 29
f 55 29 53
f 53 29 31
f 53 31 51
f 51 31 33
f 51 33 49
f 49 33 35
f 49 35 47
f 47 35 37
f 47 37 45
f 45 37 39
f 45 39 43
f 43 39 41
f 161 235 159
f 159 235 237
f 159 237 157
f 157 237 239
f 157 239 311
f 311 239 241
f 311 241 309
f 309 241 243
f 309 243 307
f 307 243 245
f 307 245 305
f 305 245 247
f 305 247 303
f 303 247 249
f 303 249 301
f 301 249 251
f 301 251 299
f 299 251 253
f 299 253 297
f 297 253 255
f 297 255 295
f 295 255 257
f 295 257 293
f 293 257 259
f 293 259 291
f 291 259 261
f 291 261 289
f 289 261 263
f 289 263 287
f 287 263 265
f 287 265 285
f 285 265 267
f 285 267 283
f 283 267 269
f 283 269 281
f 281 269 271
f 281 271 279
f 279 271 273
f 279 273 277
f 277 273 275
f 235 161 233
f 233 161 163
f 233 163 231
f 231 163 165
f 231 165 229
f 229 165 167
f 229 167 227
f 227 167 169
f 227 169 225
f 225 169 171
f 225 171 223
f 223 171 173
f 223 173 221
f 221 173 175
f 221 175 219
f 219 175 177
f 219 177 217
f 217 177 179
f 217 179 215
f 215 179 181
f 215 181 213
f 213 181 183
f 213 183 211
f 211 183 185
f 211 185 209
f 209 185 187
f 209 187 207
f 207 187 189
f 207 189 205
f 205 189 191
f 205 191 203
f 203 191 193
f 203 193 201
f 201 193 195
f 201 195 199
f 199 195 197

